<?xml version="1.0" encoding="utf-8"?>
<!-- Generator: Adobe Illustrator 25.1.0, SVG Export Plug-In . SVG Version: 6.00 Build 0)  -->
<svg version="1.1" id="ARTWORK" xmlns="http://www.w3.org/2000/svg" xmlns:xlink="http://www.w3.org/1999/xlink" x="0px" y="0px"
	 viewBox="0 0 2500 2000" style="enable-background:new 0 0 2500 2000;" xml:space="preserve">
<style type="text/css">
	.st0{fill:#0C141C;}
	.st1{fill:none;}
</style>
<g>
	<path class="st0" d="M1164.07,1173.93c42.86,107.04,4.63,194.89-26.63,309.75c-0.52,1.92-3.34,1.94-3.85,0.03
		c-28.45-106.41-98.37-162.92-116.13-175.85c-1.42-1.04-0.77-3.23,1.02-3.42c70.89-7.69,158.42-40.55,143.68-129.98
		C1161.96,1173.32,1163.64,1172.86,1164.07,1173.93z"/>
	<path class="st1" d="M1942.4,501.21c0.38-1.19-0.87-2.23-2.03-1.67c-21.37,10.31-156.14,69.49-383.25,42.23
		c-71.85-8.63-60.61,47.27-256.84,214.11c-0.51,0.43-0.49,1.19,0.07,1.54c73.76,46.38,100.67,189.73,32.07,369.24
		c-0.39,1.03,1.02,1.76,1.72,0.89c143.31-176.6,157.26-242.34,193.3-245.02c230.29-17.14,294.05-90.89,306.57-109.43
		c0.82-1.22-0.53-2.67-1.88-2.02c-73.11,35.31-188.48,33.84-240.9,28.66c-0.63-0.06-0.56-0.96,0.07-0.95
		c62.29,0.41,265.1,5.63,309.64-133.13c0.44-1.36-1.21-2.41-2.36-1.51c-77.08,60.49-237.25,60.95-297.72,56.6
		c-0.63-0.05-0.59-0.94,0.05-0.96c69.82-1.33,310.01-3.31,334.02-157.13c0.22-1.41-1.59-2.2-2.59-1.13
		c-74.45,79.79-272.24,78-322.47,75.08c-0.63-0.04-0.6-0.93,0.02-0.96C1664.13,633.08,1899.24,635.35,1942.4,501.21z"/>
	<path class="st0" d="M1171.22,762.37c-47.84,29.55-49.17,57.52-41.21,81.86c1.45,4.43,1.11,9.22-0.82,13.53
		c-9,20.12-8.28,46.52,18.17,55.61c1.12,0.38,2.25-0.62,1.95-1.73c-7.04-26.15,37.09-68.78,81.36-27.54
		c35.71,33.26,57.45,183.64-34.96,431.02c-0.41,1.1-2.12,0.7-1.92-0.45c24.14-143.68-90.7-294.96-154.61-344.24
		c-22.53-17.38-29.18-19.52-55.77-17.82c-184.74,11.76-254.06-50.56-269.01-67.03c-0.99-1.09,0.19-2.75,1.61-2.28
		c90.26,29.28,180.07,9.6,212.04,0.67c0.73-0.2,0.48-1.26-0.27-1.11c-47.33,8.95-216.18,31.54-283.56-85.03
		c-0.73-1.26,0.75-2.67,2.06-1.96c85.16,45.88,206.37,27.05,252.18,17.49c0.76-0.16,0.57-1.24-0.2-1.13
		c-61.72,8.97-258.16,25.55-310.93-116.01c-0.51-1.36,1.19-2.53,2.36-1.62c75.89,58.27,225.27,45.32,279.47,38.27
		c0.77-0.1,0.67-1.2-0.1-1.14c-66.23,4.73-273.55,8.88-312.03-119.94c-0.37-1.24,1.04-2.31,2.19-1.64
		c18.88,10.91,122.47,61.94,350.26,21.89c65.72-11.55,61.95,33.92,261.69,128.65C1171.86,761.01,1171.89,761.96,1171.22,762.37z"/>
	<path class="st0" d="M1139.53,824.95c7.48-3.37,11.69-3.82,14.5-10.07c0.36-0.81,1.55-0.8,1.86,0.02
		c4.99,13.17-4.49,13.99-17.66,29.17c-0.49,0.57-1.42,0.43-1.7-0.24c-1.15-2.79-1.98-5.46-2.58-7.77
		C1132.81,831.59,1135.15,826.93,1139.53,824.95z"/>
</g>
<path id="XMLID_574_" class="st0" d="M1229.29,1140.51l6.18-2.24l3.2,10.41l12.49-4.53l3.95-13.01l5.22-1.89
	c0.83-0.29,1.73-0.62,2.77-0.99c45.07-16.35,90.15-32.69,135.21-49.05c0,0,24.58-8.91,24.58-8.93c10.45-3.8,20.9-7.58,31.35-11.38
	c4.81-1.75,9.58-3.39,14.39-4.51l2.74,8.92l3.92-1.42l87.05-31.57l25.2-9.14c1.34,0.32,2.68,0.78,4.03,1.4
	c6.16,2.83,19.87-4.6,19.87-10.4c0-3.26,0.53-6.45,1.54-9.52c1.91-5.85,5.08-10.39,9.42-15.17c14.58-16.06,27.73-26.67,27.73-26.67
	c9.22-7.44,21.98-18.18,37.04-32.34c-7.27,7.32-14.54,14.64-21.81,21.95c14.56-5.17,25.64-6,33.07-5.81
	c9.02,0.24,10.73,1.4,27.13,3.1c9.08,0.94,18.83,0.86,27.98-2.58c4.74-1.78,9.42-4.66,11.78-8.68c2.36-4.02,1.52-9.2-2.69-10.71
	c-3.48-1.25-9.13,0.56-11.22,3.83c-13.28,3.71-27.17,0.31-35.33-7.57c-9.29-8.98-10.22-22.41-7.81-35.22
	c1.84-9.73,5.36-19.57,9.11-29.16c6.07-15.49,7.01-18.38,17.59-44.47c39.73-98.01,30-133.48,31.71-139.55
	c0.07-0.26,0.41-1.37-0.16-2.28c-0.43-0.69-1.37-0.98-2.26-1.21c-4.25-1.05-8.89-1.31-13.57-0.76c-5.07,0.59-10.08,2.1-15.04,3.82
	c-0.36,0.09-0.71,0.19-1.05,0.32c-1.51,0.56-3.01,1.11-4.52,1.67c-29.5,10.69-58.99,21.37-88.49,32.06
	c-8.94,3.24-17.9,6.49-26.55,10.53c-3.23,1.51-6.09,3.78-7.79,6.6c-3.88,6.45,0.9,10.52,6.1,12.51c3.81,1.46,8.13,2.25,11.38,4.41
	c3.57,2.38,5.44,6.16,7.55,9.65c0.04,0.07,0.09,0.14,0.14,0.22c0.78,3.58,2.39,6.96,4.91,10.32c2.89,3.86,4.77,10.16,3.06,14.82
	c-4.73,12.92-2.7,23.18,3.52,33.73c7.42,12.59-1.46,29.22-18.1,35.76c-5.95,2.34-12.48,3.02-19.26,4.26
	c-2.37-4.34-5.29-7.13-6.75-8.5c-2.04-1.9-13.08-12.24-30.57-10.93c-4.26,0.32-8.02,1.26-13.71,3.26
	c-17.37,6.09-32.25,11.31-45.21,24.11c-12.7,12.55-24.01,32.83-18.83,50.42c1.46,4.97,3.92,8.62,5.85,10.99
	c-3.55,2.4-8.88,6.58-13.32,12.83c-0.41,0.57-0.76,1.13-1.12,1.69l70.07-25.41c3.28-1.19,6.58,0.09,7.25,2.81l16.24,65.55
	l-18.78-61.03c-0.54-1.76-2.73-2.55-4.88-1.77l-73.48,26.65l-22.99,8.34l-7.3,2.65c-5.98,2.17-9.61,7.87-8.11,12.75l13.9,45.17
	c-48.27,17.62-83.49,30.47-94.57,34.31c-0.68,0.23-2.08,0.7-3.86,1.51l-36.22,13.13c-1.11,0.45-4.97,2.15-7.57,5.91
	c-3.23,4.68-2.02,8.92-1.8,9.63c29.45-10.25,58.91-20.5,88.36-30.75c-59.89,21.8-119.78,43.59-179.68,65.39L1229.29,1140.51z
	 M1655.16,837.3c0.37-0.13,0.73-0.24,1.09-0.33c-3.79,1.7-6.03,5.44-5.03,8.68c1.06,3.44,5.33,4.98,9.55,3.45
	c3.09-1.12,5.27-3.58,5.81-6.17c0.15,3.6-2.66,7.36-6.95,8.92c-4.93,1.79-9.92-0.02-11.16-4.04
	C1647.24,843.79,1650.23,839.09,1655.16,837.3z M1531.32,865.11c-0.62,0.41-1.27,0.95-1.33,1.58c-0.12,1.27,1.93,1.29,3.32,1.49
	c3.17,0.45,4.41,3.44,5.22,6.09c0.85,2.75,1.69,5.51,2.54,8.26c0.78,2.52,1.56,5.18,0.81,7.93c-0.83,3.06-3.48,5.83-6.53,7.82
	c-3.06,1.99-6.53,3.31-9.95,4.61c-3.46,1.31-7.19,2.66-10.55,2.1c-0.24-0.04-0.47-0.1-0.7-0.16c-1.5,0.02-2.86-0.31-3.94-1.19
	c-1.12-0.91-1.65-2.25-2.06-3.58c-4.32-14.21,4.02-32.32,19.51-42.37c6.49-4.21,13.86-7,21.18-9.58c6.76-2.38,14.12-4.67,20.44-3.16
	c8.52,2.03,12.18,10.88,9.63,18.94c-2.55,8.05-10.03,15.07-18.39,19.9c-1.19-5.32-3.6-9.8-6.4-14.44c-1.02-1.69-2.16-3.35-3.76-4.64
	C1545.73,860.97,1537.28,861.14,1531.32,865.11z M1462.05,978.41c-1.41-4.58,2-9.95,7.63-11.99l55.82-20.24
	c5.62-2.04,11.32,0.02,12.73,4.61v0c1.41,4.58-2,9.95-7.63,11.99l-55.82,20.24C1469.16,985.05,1463.46,982.99,1462.05,978.41
	L1462.05,978.41z M1478.19,994.08l55.82-20.24c5.62-2.04,11.32,0.02,12.73,4.61c1.41,4.58-2,9.95-7.63,11.99l-55.82,20.24
	c-5.62,2.04-11.32-0.02-12.73-4.61C1469.15,1001.49,1472.56,996.12,1478.19,994.08z M1479.19,1034.12c-1.41-4.58,2-9.95,7.63-11.99
	l55.82-20.24c5.62-2.04,11.32,0.02,12.73,4.61v0c1.41,4.58-2,9.95-7.63,11.99l-55.82,20.24
	C1486.3,1040.77,1480.6,1038.71,1479.19,1034.12L1479.19,1034.12z"/>
<g id="XMLID_13_">
	<path id="XMLID_18_" class="st0" d="M1402.22,846.1c0.03,4.16-3.35,8.32-8.49,9.94c-6.09,1.93-12.33-0.43-13.94-5.27
		c-1.61-4.84,2.03-10.32,8.12-12.25c2.34-0.74,4.71-0.84,6.82-0.42c-1.3-1.69-2.58-3.46-3.84-5.38
		c-11.16,1.02-22.66,3.01-34.17,5.91c-11.71,3.16-22.85,7.15-33.96,12.2c15.45,56.75,5.83,117.91-5.68,170.33l89.37-28.26
		c-10.24-23.15-9.03-46.69-7.74-71.6c0.1-1.98,0.2-3.98,0.3-5.98c0.71-14.6,1.75-30.26,4.58-45.91c0.72-3.99,1.54-8.09,2.44-12.17
		c0.16-0.73,0.41-1.5,0.68-2.31c0.42-1.28,1.05-3.22,0.81-3.96c-0.34-1.06-2.86-3-4.53-4.28
		C1402.73,846.49,1402.47,846.3,1402.22,846.1z"/>
	<path id="XMLID_114_" class="st0" d="M1670.38,674.15l-397.65,125.73c3.69,15.27-0.25,22.75-4.57,26.76
		c-6.69,6.21-18.72,8.22-18.43,10.85c0.14,1.31,3.24,1.71,5.21,2.05c18.81,3.29,29.74,18.53,30.94,20.21
		c3.72,5.19,4.88,10.25,5.64,15.09c7.76,49.76-15,154.06-16.43,161.04c-0.01,0.06-0.03,0.18-0.06,0.33
		c-2.04,11.84,11.01,20.13,24.9,15.85c37.94-11.7,75.88-23.39,113.82-35.09c22.51-5.49,35.59-16.66,34.54-23.95
		c-0.74-5.13-8.42-7.99-13.08-9.27c0.51-31.42-1.06-52.69-3.17-67.86c-0.22-1.56-0.81-16.58,2.49-35.61
		c2.65-15.3,13.51-26.51,31.79-32.65c20.97-7.05,41.91-14.17,62.81-21.41c6.9-2.39,12.77-6.28,17.19-11.41
		c7.87-9.14,10.7-18.73,7.9-28.97c-1.83-6.72-4.09-13.55-1.4-20.9c1.29-3.51,3.54-6.88,5.38-10.35c-0.4,0.01-0.71-0.04-0.98,0.04
		c-30.74,9.71-61.49,19.38-92.19,29.19c-7.21,2.3-12.94,6.42-17.02,12.02c-5.75,7.89-5.62,13.5,0.35,19.97
		c0.72,0.78,1.43,1.57,2.03,2.42c3.43,4.88,5.97,10,3.99,16.28c-2.9-7.65-7.61-14.16-14.8-19.3c-1.1-0.79-1.53-2.44-1.72-3.8
		c-1.92-13.21,9.56-27.13,27.02-32.65c50.47-15.95,100.96-31.86,151.44-47.77c2.91-6.35,6.29-13.08,7.92-13.97
		c1.76-0.97,81.46-26.12,151.95-48.29c8.37-2.63,13.37-10.16,11.17-16.8l-9.36-28.19l-89.6,28.33L1670.38,674.15z M1413.48,855.79
		c-0.22,0.66-0.42,1.29-0.54,1.82c-0.88,4.02-1.69,8.05-2.4,11.98c-2.77,15.37-3.8,30.84-4.5,45.27c-0.1,2.01-0.2,4-0.3,5.99
		c-1.26,24.53-2.45,47.69,7.59,70.02c0.57,1.26,0.42,2.71-0.42,4.09c-0.88,1.45-2.44,2.64-4.18,3.19l-90.52,28.62
		c-2.2,0.7-4.4,0.48-6.04-0.6c-1.7-1.12-2.49-3.04-2.05-5.01c11.43-51.98,21.04-112.66,5.73-168.6c-0.57-2.09,0.45-5.04,3.45-6.42
		c11.62-5.32,23.76-9.7,36.08-13.02c12.12-3.06,24.17-5.13,35.88-6.18c2.39-0.22,4.69,0.7,5.72,2.27c2.72,4.17,5.48,7.7,8.42,10.8
		c0.55,0.58,1.6,1.38,2.7,2.23c2.67,2.05,5.44,4.18,6.23,6.64C1415.02,851.05,1414.2,853.56,1413.48,855.79z M1534.49,774.44
		c0.09,1.76,0.31,4.44,0.97,7.63c1.57,7.63,3.73,8.98,3.34,13.83c-0.11,1.41-0.54,5.81-4.39,10.32c-3.37,3.95-7.61,5.94-9.63,6.77
		c-16.05,4.99-32.11,9.99-48.16,14.98c-0.18-2.64-0.68-5.85-1.85-9.34c-1.45-4.32-3.47-7.73-5.28-10.24
		c0.58-1.09,1.89-3.2,4.54-5.16c2.82-2.09,5.68-2.9,7.06-3.22c-0.36,2.82-0.47,7.84,2.82,12.26c1.41,1.9,2.9,2.95,3.25,3.19
		c3.96,2.74,8.71,3.02,10.85,3.02c0.89-0.61,1.78-1.22,2.67-1.84c-1.52-0.51-4.2-1.65-5.89-4.09c-1.24-1.79-1.74-3.98-1.19-7.81
		c1.04-7.21,4.84-13.58,7.86-17.75c-12.48,3.53-24.95,7.06-37.43,10.59C1487.52,789.87,1511,782.16,1534.49,774.44z"/>
	<path id="XMLID_117_" class="st0" d="M1233.27,768.82c15.41,4.04,29.06,11.46,39.35,21.37c0.03,0.38,0.07,0.76,0.09,1.14
		c0.05,0.85,0.09,1.71,0.12,2.56l393.34-124.36l17.99-22.07l92.01-29.09c-3.53-7.32-7.05-14.65-10.58-21.97l-2.91-8.76l-19.52,6.17
		l-6.83,11.84c-113.6,37.28-227.2,74.56-340.8,111.84c1.87,3.14,3.74,6.28,5.61,9.42l91.29-26.28l-92.55,31.92l-2.61,0.9l-1.12-2.11
		l-8.27-15.53l-110.83,35.04c-2.77,4.19-4.28,8.79-5.04,13.52c-12.5-3.07-25.95-4.41-39.11-0.96c-1.31,0.34-2.81,0.88-3.3,1.95
		C1228.81,767.13,1231.27,768.3,1233.27,768.82z"/>
</g>
</svg>
