<?xml version="1.0" encoding="utf-8"?>
<!-- Generator: Adobe Illustrator 23.0.2, SVG Export Plug-In . SVG Version: 6.00 Build 0)  -->
<svg version="1.1" id="Layer_1" xmlns="http://www.w3.org/2000/svg" xmlns:xlink="http://www.w3.org/1999/xlink" x="0px" y="0px"
	 viewBox="0 0 1400 980" style="enable-background:new 0 0 1400 980;" xml:space="preserve">
<style type="text/css">
	.st0{fill-rule:evenodd;clip-rule:evenodd;fill:#FFFFFF;}
	.st1{fill:#FFFFFF;}
</style>
<g>
	<path id="XMLID_5_" class="st0" d="M713,149.6c47.8,3,90.9,23.6,122.7,55.4c32.5,32.5,53.3,76.7,55.6,125.8h10.9v6v12v6H891
		c-3.6,46.6-24,88.6-55.2,119.7c-31.8,31.8-74.9,52.5-122.7,55.4V542h-6h-12h-6v-12.1c-47.8-3-90.9-23.6-122.7-55.4
		c-31.2-31.2-51.6-73.1-55.2-119.7h-13.4v-6v-12v-6h13c2.3-49,23.1-93.3,55.6-125.8c31.8-31.8,74.9-52.5,122.7-55.4v-12.1h6h12h6
		V149.6L713,149.6z M707,273.4v63.4h59.3v-6h101.1c-2.2-42.4-20.4-80.7-48.5-108.9c-27.5-27.5-64.6-45.4-105.8-48.4v99.8L707,273.4
		L707,273.4z M707,348.8v57.3h6v99.8c41.2-2.9,78.3-20.9,105.8-48.4c26.8-26.8,44.5-62.8,48.1-102.8H766.3v-6H707L707,348.8z
		 M695.1,406.1v-57.3h-61.4v6h-98.5c3.6,40,21.3,76,48.1,102.8c27.5,27.5,64.6,45.4,105.8,48.4v-99.8H695.1L695.1,406.1z
		 M695.1,336.8v-63.4h-6v-99.8c-41.2,2.9-78.3,20.9-105.8,48.4c-28.2,28.2-46.3,66.4-48.5,108.9h98.9v6L695.1,336.8L695.1,336.8z"/>
</g>
<g>
	<path class="st1" d="M442.5,750.5h10.2l29.1,73.8h-12.3l-7.8-20.1h-28.5l-7.7,20.1h-12.4L442.5,750.5z M459.5,795.6l-11.9-31.7
		l-12.3,31.7H459.5z"/>
	<path class="st1" d="M484.5,797.1c0-3.8,0.7-7.4,2-10.8c1.3-3.4,3.2-6.4,5.7-8.9c2.5-2.6,5.4-4.6,8.9-6.1c3.5-1.5,7.3-2.2,11.6-2.2
		c5.6,0,10.5,1.2,14.5,3.7c4.1,2.5,7.1,5.7,9.1,9.8l-11.1,3.5c-1.3-2.3-3.1-4.1-5.3-5.4c-2.2-1.3-4.7-1.9-7.4-1.9
		c-2.3,0-4.4,0.5-6.4,1.4c-2,0.9-3.7,2.2-5.1,3.8c-1.5,1.6-2.6,3.6-3.4,5.8c-0.8,2.2-1.2,4.7-1.2,7.4c0,2.6,0.4,5.1,1.3,7.3
		c0.9,2.3,2,4.2,3.5,5.9c1.5,1.7,3.2,3,5.2,3.9c2,0.9,4.1,1.4,6.3,1.4c1.4,0,2.8-0.2,4.2-0.6c1.4-0.4,2.7-0.9,3.8-1.6
		c1.1-0.7,2.1-1.5,3-2.4c0.9-0.9,1.5-1.9,1.9-2.9l11.2,3.3c-1.8,4.1-4.8,7.4-9,10c-4.2,2.6-9.2,3.9-15,3.9c-4.2,0-8.1-0.8-11.5-2.3
		c-3.5-1.5-6.4-3.6-8.9-6.2c-2.5-2.6-4.4-5.6-5.7-9C485.2,804.5,484.5,800.9,484.5,797.1z"/>
	<path class="st1" d="M542.2,797.1c0-3.8,0.7-7.4,2-10.8c1.3-3.4,3.2-6.4,5.7-8.9c2.5-2.6,5.4-4.6,8.9-6.1c3.5-1.5,7.3-2.2,11.6-2.2
		c5.6,0,10.5,1.2,14.5,3.7c4.1,2.5,7.1,5.7,9.1,9.8l-11.1,3.5c-1.3-2.3-3.1-4.1-5.3-5.4c-2.2-1.3-4.7-1.9-7.4-1.9
		c-2.3,0-4.4,0.5-6.4,1.4c-2,0.9-3.7,2.2-5.1,3.8c-1.5,1.6-2.6,3.6-3.4,5.8c-0.8,2.2-1.2,4.7-1.2,7.4c0,2.6,0.4,5.1,1.3,7.3
		c0.9,2.3,2,4.2,3.5,5.9c1.5,1.7,3.2,3,5.2,3.9c2,0.9,4.1,1.4,6.3,1.4c1.4,0,2.8-0.2,4.2-0.6c1.4-0.4,2.7-0.9,3.8-1.6
		c1.1-0.7,2.1-1.5,3-2.4c0.9-0.9,1.5-1.9,1.9-2.9l11.2,3.3c-1.8,4.1-4.8,7.4-9,10c-4.2,2.6-9.2,3.9-15,3.9c-4.2,0-8.1-0.8-11.5-2.3
		c-3.5-1.5-6.4-3.6-8.9-6.2c-2.5-2.6-4.4-5.6-5.7-9C542.8,804.5,542.2,800.9,542.2,797.1z"/>
	<path class="st1" d="M628,825.4c-4.2,0-8.1-0.7-11.5-2.2c-3.5-1.5-6.4-3.5-8.9-6.1c-2.5-2.6-4.4-5.5-5.7-8.9c-1.4-3.4-2-7-2-10.8
		c0-3.8,0.7-7.4,2-10.9c1.4-3.4,3.3-6.4,5.7-9c2.5-2.6,5.4-4.6,8.9-6.1c3.5-1.5,7.3-2.2,11.6-2.2c4.2,0,8.1,0.8,11.5,2.3
		c3.4,1.5,6.4,3.6,8.8,6.1c2.4,2.5,4.3,5.5,5.6,8.8c1.3,3.4,1.9,6.9,1.9,10.6c0,0.8,0,1.6-0.1,2.3c-0.1,0.7-0.1,1.3-0.2,1.8h-43.6
		c0.2,2.4,0.8,4.6,1.7,6.6c0.9,1.9,2.1,3.6,3.6,5c1.5,1.4,3.2,2.5,5.1,3.3c1.9,0.8,3.9,1.1,6,1.1c1.5,0,3-0.2,4.5-0.6
		c1.5-0.4,2.9-0.9,4.1-1.7c1.2-0.7,2.4-1.6,3.3-2.7c1-1,1.7-2.2,2.3-3.4l9.8,2.8c-1.9,4.1-5,7.4-9.3,10
		C638.8,824.1,633.7,825.4,628,825.4z M644.5,793c-0.2-2.3-0.8-4.4-1.7-6.3c-0.9-1.9-2.1-3.6-3.6-4.9c-1.5-1.4-3.2-2.4-5.1-3.2
		c-1.9-0.8-4-1.1-6.1-1.1c-2.1,0-4.2,0.4-6.1,1.1c-1.9,0.8-3.6,1.8-5,3.2c-1.5,1.4-2.6,3-3.5,4.9c-0.9,1.9-1.5,4.1-1.7,6.3H644.5z"
		/>
	<path class="st1" d="M685,825.4c-4.4,0-8.7-0.7-13.1-2.1c-4.3-1.4-8.1-3.4-11.2-6.1l4.6-7.3c3.3,2.4,6.5,4.1,9.7,5.4
		c3.2,1.2,6.4,1.8,9.8,1.8c3.4,0,6.1-0.7,8.1-2c2-1.3,3-3.2,3-5.6c0-2.3-1.1-4-3.3-5c-2.2-1-5.7-2.2-10.4-3.4
		c-3.4-0.9-6.3-1.8-8.7-2.6c-2.4-0.8-4.4-1.8-5.9-2.9c-1.5-1.1-2.6-2.4-3.3-3.8c-0.7-1.5-1-3.2-1-5.3c0-2.8,0.5-5.2,1.6-7.4
		c1.1-2.1,2.6-4,4.5-5.5c1.9-1.5,4.1-2.6,6.7-3.4c2.6-0.8,5.3-1.1,8.3-1.1c4.1,0,7.9,0.6,11.4,1.9s6.7,3.1,9.5,5.4l-4.9,6.9
		c-5.1-4-10.4-6-16.1-6c-2.9,0-5.4,0.6-7.3,1.8c-2,1.2-3,3.1-3,5.8c0,1.1,0.2,2,0.6,2.8c0.4,0.8,1.1,1.4,2,2
		c0.9,0.6,2.1,1.1,3.6,1.5c1.5,0.5,3.3,1,5.6,1.5c3.7,0.9,6.8,1.8,9.5,2.7c2.7,0.9,4.9,2,6.6,3.2c1.7,1.2,3,2.6,3.8,4.3
		c0.8,1.6,1.2,3.6,1.2,5.9c0,5.2-2,9.3-5.9,12.3C697,823.8,691.7,825.4,685,825.4z"/>
	<path class="st1" d="M736.5,825.4c-4.4,0-8.7-0.7-13.1-2.1c-4.3-1.4-8.1-3.4-11.2-6.1l4.6-7.3c3.3,2.4,6.5,4.1,9.7,5.4
		c3.2,1.2,6.4,1.8,9.8,1.8c3.4,0,6.1-0.7,8.1-2c2-1.3,3-3.2,3-5.6c0-2.3-1.1-4-3.3-5c-2.2-1-5.7-2.2-10.4-3.4
		c-3.4-0.9-6.3-1.8-8.7-2.6c-2.4-0.8-4.4-1.8-5.9-2.9c-1.5-1.1-2.6-2.4-3.3-3.8c-0.7-1.5-1-3.2-1-5.3c0-2.8,0.5-5.2,1.6-7.4
		c1.1-2.1,2.6-4,4.5-5.5c1.9-1.5,4.1-2.6,6.7-3.4c2.6-0.8,5.3-1.1,8.3-1.1c4.1,0,7.9,0.6,11.4,1.9s6.7,3.1,9.5,5.4l-4.9,6.9
		c-5.1-4-10.4-6-16.1-6c-2.9,0-5.4,0.6-7.3,1.8c-2,1.2-3,3.1-3,5.8c0,1.1,0.2,2,0.6,2.8c0.4,0.8,1.1,1.4,2,2
		c0.9,0.6,2.1,1.1,3.6,1.5c1.5,0.5,3.3,1,5.6,1.5c3.7,0.9,6.8,1.8,9.5,2.7c2.7,0.9,4.9,2,6.6,3.2c1.7,1.2,3,2.6,3.8,4.3
		c0.8,1.6,1.2,3.6,1.2,5.9c0,5.2-2,9.3-5.9,12.3C748.6,823.8,743.3,825.4,736.5,825.4z"/>
	<path class="st1" d="M792.8,825.4c-4.3,0-8.2-0.8-11.6-2.3c-3.4-1.5-6.4-3.6-8.8-6.1c-2.4-2.6-4.3-5.6-5.6-9c-1.3-3.4-2-7-2-10.8
		c0-3.7,0.7-7.3,2-10.8c1.3-3.4,3.2-6.4,5.7-9c2.5-2.6,5.4-4.6,8.8-6.1c3.4-1.5,7.3-2.3,11.5-2.3c4.2,0,8.1,0.8,11.5,2.3
		c3.4,1.5,6.4,3.6,8.8,6.1c2.5,2.6,4.4,5.6,5.7,9c1.3,3.4,2,7,2,10.8c0,3.7-0.7,7.3-2,10.8c-1.3,3.4-3.2,6.4-5.7,9
		c-2.5,2.6-5.4,4.6-8.8,6.1C800.9,824.6,797,825.4,792.8,825.4z M776.6,797.3c0,2.6,0.4,5.1,1.2,7.3c0.8,2.2,2,4.1,3.4,5.8
		c1.5,1.6,3.2,2.9,5.1,3.8c2,0.9,4.1,1.4,6.4,1.4s4.4-0.5,6.4-1.4c2-0.9,3.7-2.2,5.1-3.9s2.6-3.6,3.4-5.8c0.8-2.2,1.2-4.6,1.2-7.3
		c0-2.6-0.4-5-1.2-7.2c-0.8-2.3-2-4.2-3.4-5.9s-3.2-3-5.1-3.9c-2-0.9-4.1-1.4-6.4-1.4c-2.2,0-4.3,0.5-6.3,1.5c-2,1-3.7,2.3-5.1,4
		c-1.5,1.7-2.6,3.6-3.5,5.9C777,792.3,776.6,794.7,776.6,797.3z"/>
	<path class="st1" d="M861.5,779.8c-4.4,0.1-8.4,1.2-11.8,3.1c-3.4,1.9-5.9,4.6-7.3,8.2v33.3H831v-54.4h10.6v12.2
		c1.9-3.7,4.3-6.7,7.3-9c3-2.3,6.3-3.5,9.7-3.7c0.7,0,1.3,0,1.7,0c0.5,0,0.8,0,1.2,0.1V779.8z"/>
	<path class="st1" d="M869.9,761v-12.6h11.4V761H869.9z M869.9,824.3v-54.4h11.4v54.4H869.9z"/>
	<path class="st1" d="M919.7,825.4c-4.2,0-8.1-0.7-11.5-2.2c-3.5-1.5-6.4-3.5-8.9-6.1c-2.5-2.6-4.4-5.5-5.7-8.9c-1.4-3.4-2-7-2-10.8
		c0-3.8,0.7-7.4,2-10.9c1.4-3.4,3.3-6.4,5.7-9c2.5-2.6,5.4-4.6,8.9-6.1c3.5-1.5,7.3-2.2,11.6-2.2c4.2,0,8.1,0.8,11.5,2.3
		c3.4,1.5,6.4,3.6,8.8,6.1c2.4,2.5,4.3,5.5,5.6,8.8c1.3,3.4,1.9,6.9,1.9,10.6c0,0.8,0,1.6-0.1,2.3c-0.1,0.7-0.1,1.3-0.2,1.8h-43.6
		c0.2,2.4,0.8,4.6,1.7,6.6c0.9,1.9,2.1,3.6,3.6,5c1.5,1.4,3.2,2.5,5.1,3.3c1.9,0.8,3.9,1.1,6,1.1c1.5,0,3-0.2,4.5-0.6
		c1.5-0.4,2.9-0.9,4.1-1.7c1.2-0.7,2.4-1.6,3.3-2.7c1-1,1.7-2.2,2.3-3.4l9.8,2.8c-1.9,4.1-5,7.4-9.3,10
		C930.5,824.1,925.4,825.4,919.7,825.4z M936.2,793c-0.2-2.3-0.8-4.4-1.7-6.3c-0.9-1.9-2.1-3.6-3.6-4.9c-1.5-1.4-3.2-2.4-5.1-3.2
		c-1.9-0.8-4-1.1-6.1-1.1c-2.1,0-4.2,0.4-6.1,1.1c-1.9,0.8-3.6,1.8-5,3.2c-1.5,1.4-2.6,3-3.5,4.9c-0.9,1.9-1.5,4.1-1.7,6.3H936.2z"
		/>
	<path class="st1" d="M976.7,825.4c-4.4,0-8.7-0.7-13.1-2.1c-4.3-1.4-8.1-3.4-11.2-6.1l4.6-7.3c3.3,2.4,6.5,4.1,9.7,5.4
		c3.2,1.2,6.4,1.8,9.8,1.8c3.4,0,6.1-0.7,8.1-2c2-1.3,3-3.2,3-5.6c0-2.3-1.1-4-3.3-5c-2.2-1-5.7-2.2-10.4-3.4
		c-3.4-0.9-6.3-1.8-8.7-2.6c-2.4-0.8-4.4-1.8-5.9-2.9c-1.5-1.1-2.6-2.4-3.3-3.8c-0.7-1.5-1-3.2-1-5.3c0-2.8,0.5-5.2,1.6-7.4
		c1.1-2.1,2.6-4,4.5-5.5c1.9-1.5,4.1-2.6,6.7-3.4c2.6-0.8,5.3-1.1,8.3-1.1c4.1,0,7.9,0.6,11.4,1.9c3.5,1.2,6.7,3.1,9.5,5.4l-4.9,6.9
		c-5.1-4-10.4-6-16.1-6c-2.9,0-5.4,0.6-7.3,1.8c-2,1.2-3,3.1-3,5.8c0,1.1,0.2,2,0.6,2.8c0.4,0.8,1.1,1.4,2,2
		c0.9,0.6,2.1,1.1,3.6,1.5c1.5,0.5,3.3,1,5.6,1.5c3.7,0.9,6.8,1.8,9.5,2.7c2.7,0.9,4.9,2,6.6,3.2c1.7,1.2,3,2.6,3.8,4.3
		c0.8,1.6,1.2,3.6,1.2,5.9c0,5.2-2,9.3-5.9,12.3C988.7,823.8,983.4,825.4,976.7,825.4z"/>
</g>
</svg>
