<?xml version="1.0" encoding="utf-8"?>
<!-- Generator: Adobe Illustrator 23.0.2, SVG Export Plug-In . SVG Version: 6.00 Build 0)  -->
<svg version="1.1" id="Layer_1" xmlns="http://www.w3.org/2000/svg" xmlns:xlink="http://www.w3.org/1999/xlink" x="0px" y="0px"
	 viewBox="0 0 1400 980" style="enable-background:new 0 0 1400 980;" xml:space="preserve">
<style type="text/css">
	.st0{fill-rule:evenodd;clip-rule:evenodd;fill:#FFFFFF;}
</style>
<g>
	<path id="XMLID_5_" class="st0" d="M772.58,306.78c47.83,2.96,90.89,23.58,122.73,55.42c32.51,32.51,53.33,76.71,55.59,125.76h10.9
		v5.98v11.96v5.98h-11.28c-3.63,46.62-24.05,88.55-55.21,119.71c-31.84,31.84-74.91,52.46-122.73,55.42v12.14h-5.98h-11.96h-5.98
		v-12.14c-47.84-2.96-90.89-23.58-122.73-55.42c-31.16-31.16-51.58-73.09-55.21-119.71h-13.42v-5.98v-11.96v-5.98h13.04
		c2.27-49.05,23.09-93.25,55.59-125.76c31.84-31.84,74.9-52.46,122.73-55.42v-12.14h5.98h11.96h5.98V306.78L772.58,306.78z
		 M766.6,430.56v63.38h59.28v-5.98h101.07c-2.24-42.44-20.36-80.68-48.53-108.85c-27.51-27.5-64.61-45.43-105.83-48.35v99.81H766.6
		L766.6,430.56z M766.6,505.9v57.33h5.98v99.81c41.22-2.93,78.32-20.86,105.83-48.36c26.82-26.83,44.54-62.78,48.11-102.8H825.88
		v-5.98H766.6L766.6,505.9z M754.64,563.23V505.9H693.2v5.98h-98.49c3.57,40.02,21.28,75.96,48.11,102.8
		c27.5,27.51,64.59,45.43,105.83,48.36v-99.81H754.64L754.64,563.23z M754.64,493.94v-63.38h-5.98v-99.81
		c-41.23,2.92-78.32,20.85-105.83,48.35c-28.17,28.18-46.3,66.41-48.55,108.85h98.93v5.98H754.64z"/>
</g>
</svg>
