<?xml version="1.0" encoding="utf-8"?>
<!-- Generator: Adobe Illustrator 23.0.2, SVG Export Plug-In . SVG Version: 6.00 Build 0)  -->
<svg version="1.1" id="Layer_1" xmlns="http://www.w3.org/2000/svg" xmlns:xlink="http://www.w3.org/1999/xlink" x="0px" y="0px"
	 viewBox="0 0 5500 4000" style="enable-background:new 0 0 5500 4000;" xml:space="preserve">
<style type="text/css">
	.st0{fill:none;}
	.st1{fill:#FFFFFF;}
</style>
<g>
	<rect class="st0" width="5500" height="4066.69"/>
	<g>
		<path class="st1" d="M2535.61,1898.72c-0.45,0.41-0.93,0.77-1.47,1.07c-0.34,0.51-0.73,0.98-1.18,1.39
			c-0.09,0.08-0.18,0.16-0.27,0.24l0.01,0.01l-479.92,446.42c-0.65,0.6-1.42,1.06-2.29,1.37l-0.57,0.17l-48.05,14.81l-16.43,15.29
			c5.85,14.17,6.95,24.54,2.14,29.01c-0.01,0.01-0.02,0.01-0.03,0.02l-17.98,16.73c-2.86,2.66-7.57,3.02-13.72,1.37
			c-18.21-4.88-49.06-27.36-82.01-60.08c-7.18-7.14-14.46-14.75-21.73-22.78l-1.3-1.44c-7.7-8.56-14.96-17.09-21.69-25.47
			c-10.76-13.4-20.18-26.38-27.94-38.38c-20.35-31.46-29.28-56.15-21.09-63.77l18.01-16.75c4.81-4.47,14.87-2.44,28.23,4.74
			l16.45-15.3l18.7-47.19l0.3-0.76c0-0.01,0.01-0.01,0.01-0.02c0.38-0.82,0.87-1.53,1.5-2.11l479.92-446.42l0.01,0.01
			c0.08-0.08,0.17-0.17,0.25-0.25c0.44-0.41,0.93-0.76,1.46-1.06c0.34-0.52,0.73-0.98,1.18-1.4c0.65-0.6,1.4-1.09,2.24-1.46
			c0.53-0.23,1.09-0.42,1.69-0.57l70.42-23.45c0.18-0.22,0.38-0.44,0.59-0.63l50.44-46.92
			c128.07-118.87,236.78-114.44,268.27-109.98c2.77,0.39,5.2,1.75,6.99,3.73c0.45,0.5,0.85,1.03,1.2,1.59c0,0,0,0,0,0
			c1.07,1.7,1.73,3.69,1.84,5.82c1.18,24.24-1.51,92.57-57.05,175.57c-18.42,27.53-42.65,56.67-74.49,86.35l-49.96,46.47
			l-30.74,71.19C2537.09,1897,2536.44,1897.95,2535.61,1898.72z"/>
		<path class="st1" d="M3020.71,2010.29c-0.43,0.43-0.91,0.8-1.43,1.12c-0.26,0.42-0.55,0.81-0.87,1.17l0.01,0.01l-641,641.77
			c-0.62,0.62-1.38,1.1-2.23,1.44l-0.57,0.2l-47.48,16.59l-15.87,15.89c6.35,13.94,7.83,24.26,3.19,28.91
			c-0.01,0.01-0.02,0.01-0.03,0.02l-17.36,17.39c-2.76,2.76-7.46,3.3-13.66,1.88c-18.37-4.2-50.02-25.51-84.12-56.98
			c-7.43-6.86-14.99-14.2-22.54-21.95c-0.45-0.46-0.9-0.93-1.35-1.39c-8-8.26-15.57-16.53-22.59-24.65
			c-11.24-12.98-21.12-25.61-29.31-37.3c-21.47-30.68-31.29-55.02-23.38-62.94l17.39-17.41c4.64-4.65,14.77-2.99,28.39,3.69
			l15.89-15.91l16.98-47.85l0.28-0.78c0-0.01,0.01-0.01,0.01-0.03c0.35-0.83,0.82-1.56,1.42-2.16l640.86-641.63l0,0
			c0.4-0.38,0.82-0.7,1.29-0.99c0.32-0.53,0.7-1.01,1.13-1.44c0.62-0.62,1.36-1.14,2.18-1.54c0.52-0.25,1.08-0.46,1.67-0.63
			l69.52-26.06c0.17-0.23,0.36-0.45,0.57-0.66l48.71-48.77c123.68-123.57,232.49-123.19,264.11-119.92
			c2.78,0.29,5.26,1.56,7.12,3.47c0.46,0.48,0.88,0.99,1.26,1.54c0,0,0,0,0,0c1.13,1.66,1.86,3.62,2.04,5.74
			c2.05,24.18,1.83,92.57-50.67,177.57c-17.41,28.2-40.58,58.22-71.32,89.07l-48.25,48.31l-28.14,72.29
			C3022.13,2008.52,3021.51,2009.49,3020.71,2010.29z"/>
		<path class="st1" d="M3238.78,2441.35c-0.42,0.44-0.89,0.82-1.41,1.15c-0.31,0.53-0.67,1.02-1.09,1.46
			c-0.08,0.08-0.17,0.17-0.25,0.25l0.01,0.01l-453.75,473.87c-0.61,0.64-1.35,1.13-2.2,1.49l-0.56,0.21l-47.12,17.6l-15.54,16.23
			c6.65,13.8,8.33,24.09,3.79,28.84l-17.02,17.78c-2.7,2.82-7.39,3.46-13.63,2.17c-18.46-3.8-50.53-24.43-85.28-55.16
			c-7.58-6.7-15.28-13.87-22.99-21.46c-0.45-0.44-0.91-0.89-1.36-1.34l-0.03-0.03c-8.17-8.09-15.9-16.19-23.09-24.15
			c-11.51-12.74-21.64-25.14-30.08-36.67c-22.1-30.21-32.42-54.34-24.68-62.43l17.02-17.78c4.54-4.74,14.71-3.31,28.46,3.08
			l15.56-16.24l15.99-48.21l0.26-0.78c0.01-0.01,0.01-0.01,0.01-0.03c0.34-0.84,0.79-1.58,1.38-2.19l453.75-473.87l0.01,0.01
			c0.07-0.09,0.16-0.18,0.24-0.27c0.42-0.44,0.88-0.81,1.39-1.14c0.31-0.53,0.68-1.02,1.11-1.47c0.61-0.64,1.33-1.16,2.15-1.58
			c0.52-0.26,1.07-0.49,1.66-0.66l68.97-27.55c0.17-0.23,0.35-0.46,0.55-0.67l47.69-49.8c-0.14,0.14-0.26,0.29-0.38,0.45
			c0.31-0.36,0.63-0.71,0.96-1.05l1.02-1.06c280.23-292.39,459.93-368.4,510.22-385.23c4.42-1.48,7.75-1.12,9.64,0.75l0.03,0.03
			c0.46,0.46,0.84,1.01,1.12,1.65c0,0,0,0,0,0c0.85,1.96,0.86,4.71-0.14,8.11c-11.42,38.72-53.68,152.48-192.58,330.67
			c-46.07,59.1-102.77,125.3-172.5,198.2l-1.02,1.07c-0.33,0.35-0.67,0.68-1.02,1.01c0.15-0.13,0.29-0.26,0.43-0.41l-47.24,49.33
			l-26.63,72.87C3240.16,2439.54,3239.56,2440.53,3238.78,2441.35z"/>
	</g>
</g>
</svg>
