<?xml version="1.0" encoding="utf-8"?>
<!-- Generator: Adobe Illustrator 23.0.2, SVG Export Plug-In . SVG Version: 6.00 Build 0)  -->
<svg version="1.1" id="Layer_1" xmlns="http://www.w3.org/2000/svg" xmlns:xlink="http://www.w3.org/1999/xlink" x="0px" y="0px"
	 viewBox="0 0 5500 4000" style="enable-background:new 0 0 5500 4000;" xml:space="preserve">
<style type="text/css">
	.st0{fill:none;}
	.st1{fill:#FFFFFF;}
</style>
<g>
	<rect y="-939.8" class="st0" width="5500" height="4066.7"/>
	<g>
		<path class="st1" d="M2535.6,958.9c-0.4,0.4-0.9,0.8-1.5,1.1c-0.3,0.5-0.7,1-1.2,1.4c-0.1,0.1-0.2,0.2-0.3,0.2l0,0l-479.9,446.4
			c-0.6,0.6-1.4,1.1-2.3,1.4l-0.6,0.2l-48.1,14.8l-16.4,15.3c5.8,14.2,6.9,24.5,2.1,29c0,0,0,0,0,0l-18,16.7
			c-2.9,2.7-7.6,3-13.7,1.4c-18.2-4.9-49.1-27.4-82-60.1c-7.2-7.1-14.5-14.8-21.7-22.8l-1.3-1.4c-7.7-8.6-15-17.1-21.7-25.5
			c-10.8-13.4-20.2-26.4-27.9-38.4c-20.3-31.5-29.3-56.1-21.1-63.8l18-16.8c4.8-4.5,14.9-2.4,28.2,4.7l16.4-15.3l18.7-47.2l0.3-0.8
			c0,0,0,0,0,0c0.4-0.8,0.9-1.5,1.5-2.1l479.9-446.4l0,0c0.1-0.1,0.2-0.2,0.3-0.3c0.4-0.4,0.9-0.8,1.5-1.1c0.3-0.5,0.7-1,1.2-1.4
			c0.6-0.6,1.4-1.1,2.2-1.5c0.5-0.2,1.1-0.4,1.7-0.6l70.4-23.4c0.2-0.2,0.4-0.4,0.6-0.6l50.4-46.9
			c128.1-118.9,236.8-114.4,268.3-110c2.8,0.4,5.2,1.8,7,3.7c0.4,0.5,0.9,1,1.2,1.6l0,0c1.1,1.7,1.7,3.7,1.8,5.8
			c1.2,24.2-1.5,92.6-57.1,175.6c-18.4,27.5-42.6,56.7-74.5,86.3l-50,46.5l-30.7,71.2C2537.1,957.2,2536.4,958.2,2535.6,958.9z"/>
		<path class="st1" d="M3020.7,1070.5c-0.4,0.4-0.9,0.8-1.4,1.1c-0.3,0.4-0.6,0.8-0.9,1.2l0,0l-641,641.8c-0.6,0.6-1.4,1.1-2.2,1.4
			l-0.6,0.2l-47.5,16.6l-15.9,15.9c6.4,13.9,7.8,24.3,3.2,28.9c0,0,0,0,0,0l-17.4,17.4c-2.8,2.8-7.5,3.3-13.7,1.9
			c-18.4-4.2-50-25.5-84.1-57c-7.4-6.9-15-14.2-22.5-21.9c-0.4-0.5-0.9-0.9-1.4-1.4c-8-8.3-15.6-16.5-22.6-24.6
			c-11.2-13-21.1-25.6-29.3-37.3c-21.5-30.7-31.3-55-23.4-62.9l17.4-17.4c4.6-4.6,14.8-3,28.4,3.7l15.9-15.9l17-47.9l0.3-0.8
			c0,0,0,0,0,0c0.4-0.8,0.8-1.6,1.4-2.2l640.9-641.6l0,0c0.4-0.4,0.8-0.7,1.3-1c0.3-0.5,0.7-1,1.1-1.4c0.6-0.6,1.4-1.1,2.2-1.5
			c0.5-0.3,1.1-0.5,1.7-0.6l69.5-26.1c0.2-0.2,0.4-0.4,0.6-0.7l48.7-48.8c123.7-123.6,232.5-123.2,264.1-119.9
			c2.8,0.3,5.3,1.6,7.1,3.5c0.5,0.5,0.9,1,1.3,1.5l0,0c1.1,1.7,1.9,3.6,2,5.7c2.1,24.2,1.8,92.6-50.7,177.6
			c-17.4,28.2-40.6,58.2-71.3,89.1l-48.3,48.3l-28.1,72.3C3022.1,1068.7,3021.5,1069.7,3020.7,1070.5z"/>
		<path class="st1" d="M3238.8,1501.6c-0.4,0.4-0.9,0.8-1.4,1.1c-0.3,0.5-0.7,1-1.1,1.5c-0.1,0.1-0.2,0.2-0.3,0.3l0,0l-453.8,473.9
			c-0.6,0.6-1.4,1.1-2.2,1.5l-0.6,0.2l-47.1,17.6l-15.5,16.2c6.6,13.8,8.3,24.1,3.8,28.8l-17,17.8c-2.7,2.8-7.4,3.5-13.6,2.2
			c-18.5-3.8-50.5-24.4-85.3-55.2c-7.6-6.7-15.3-13.9-23-21.5c-0.4-0.4-0.9-0.9-1.4-1.3l0,0c-8.2-8.1-15.9-16.2-23.1-24.1
			c-11.5-12.7-21.6-25.1-30.1-36.7c-22.1-30.2-32.4-54.3-24.7-62.4l17-17.8c4.5-4.7,14.7-3.3,28.5,3.1l15.6-16.2l16-48.2l0.3-0.8
			c0,0,0,0,0,0c0.3-0.8,0.8-1.6,1.4-2.2l453.8-473.9l0,0c0.1-0.1,0.2-0.2,0.2-0.3c0.4-0.4,0.9-0.8,1.4-1.1c0.3-0.5,0.7-1,1.1-1.5
			c0.6-0.6,1.3-1.2,2.1-1.6c0.5-0.3,1.1-0.5,1.7-0.7l69-27.6c0.2-0.2,0.4-0.5,0.6-0.7l47.7-49.8c-0.1,0.1-0.3,0.3-0.4,0.4
			c0.3-0.4,0.6-0.7,1-1.1l1-1.1c280.2-292.4,459.9-368.4,510.2-385.2c4.4-1.5,7.8-1.1,9.6,0.8l0,0c0.5,0.5,0.8,1,1.1,1.7l0,0
			c0.9,2,0.9,4.7-0.1,8.1c-11.4,38.7-53.7,152.5-192.6,330.7c-46.1,59.1-102.8,125.3-172.5,198.2l-1,1.1c-0.3,0.4-0.7,0.7-1,1
			c0.1-0.1,0.3-0.3,0.4-0.4l-47.2,49.3l-26.6,72.9C3240.2,1499.8,3239.6,1500.7,3238.8,1501.6z"/>
	</g>
</g>
<g>
	<path class="st1" d="M2221.7,3041.5h40.2l114.8,291.1h-48.4l-30.8-79.1h-112.3l-30.3,79.1h-48.8L2221.7,3041.5z M2288.6,3219.5
		l-46.7-125l-48.4,125H2288.6z"/>
	<path class="st1" d="M2735,3332.6h-45.1v-120.1c0-19.9-3.3-34.6-9.8-43.9c-6.6-9.3-16.1-13.9-28.7-13.9c-12.9,0-24.5,4.7-35.1,14.1
		c-10.5,9.4-18.1,21.7-22.8,36.7v127.1h-45.1v-120.1c0-20.2-3.3-34.9-9.8-44.1c-6.6-9.2-16-13.7-28.3-13.7
		c-12.9,0-24.6,4.7-35.3,13.9c-10.7,9.3-18.3,21.5-23,36.5v127.5H2407v-214.4h41v43c8.5-15,19.6-26.6,33.4-34.6
		c13.8-8.1,29.6-12.1,47.4-12.1c17.8,0,31.8,4.7,42,13.9c10.3,9.3,16.6,20.9,19.1,34.8c9-15.8,20.4-27.9,34-36.3
		c13.7-8.3,29.2-12.5,46.7-12.5c12.6,0,23,2.4,31.4,7.2c8.3,4.8,15,11.1,19.9,19.1c4.9,7.9,8.3,17.2,10.3,27.7
		c1.9,10.5,2.9,21.7,2.9,33.4V3332.6z"/>
	<path class="st1" d="M3115.1,3332.6H3070v-120.1c0-19.9-3.3-34.6-9.8-43.9c-6.6-9.3-16.1-13.9-28.7-13.9
		c-12.9,0-24.5,4.7-35.1,14.1c-10.5,9.4-18.1,21.7-22.8,36.7v127.1h-45.1v-120.1c0-20.2-3.3-34.9-9.8-44.1
		c-6.6-9.2-16-13.7-28.3-13.7c-12.9,0-24.6,4.7-35.3,13.9c-10.7,9.3-18.3,21.5-23,36.5v127.5h-45.1v-214.4h41v43
		c8.5-15,19.6-26.6,33.4-34.6c13.8-8.1,29.6-12.1,47.4-12.1c17.8,0,31.8,4.7,42,13.9c10.3,9.3,16.6,20.9,19.1,34.8
		c9-15.8,20.4-27.9,34-36.3c13.7-8.3,29.2-12.5,46.7-12.5c12.6,0,23,2.4,31.4,7.2c8.3,4.8,15,11.1,19.9,19.1
		c4.9,7.9,8.3,17.2,10.3,27.7c1.9,10.5,2.9,21.7,2.9,33.4V3332.6z"/>
	<path class="st1" d="M3263.5,3336.7c-17,0-32.2-3-45.7-9c-13.5-6-25.1-14.1-34.6-24.2c-9.6-10.1-17-21.9-22.1-35.5
		c-5.2-13.5-7.8-27.7-7.8-42.4s2.6-28.9,7.8-42.4c5.2-13.5,12.6-25.3,22.3-35.5c9.7-10.1,21.3-18.2,34.9-24.2c13.5-6,28.6-9,45.3-9
		c16.7,0,31.8,3,45.3,9c13.5,6,25.1,14.1,34.9,24.2c9.7,10.1,17.1,21.9,22.3,35.5c5.2,13.5,7.8,27.7,7.8,42.4s-2.6,28.9-7.8,42.4
		c-5.2,13.5-12.6,25.4-22.3,35.5c-9.7,10.1-21.3,18.2-34.9,24.2S3280.2,3336.7,3263.5,3336.7z M3199.6,3226c0,10.4,1.6,20,4.9,28.7
		c3.3,8.8,7.8,16.3,13.5,22.8c5.7,6.4,12.5,11.5,20.3,15.2c7.8,3.7,16.2,5.5,25.2,5.5c9,0,17.4-1.8,25.2-5.5
		c7.8-3.7,14.6-8.8,20.3-15.4c5.7-6.6,10.3-14.2,13.5-23c3.3-8.7,4.9-18.3,4.9-28.7c0-10.1-1.6-19.6-4.9-28.5
		c-3.3-8.9-7.8-16.6-13.5-23.2c-5.7-6.6-12.5-11.7-20.3-15.4c-7.8-3.7-16.2-5.5-25.2-5.5c-8.8,0-17,1.9-24.8,5.7
		c-7.8,3.8-14.6,9-20.3,15.6c-5.7,6.6-10.3,14.3-13.7,23.2C3201.3,3206.4,3199.6,3215.9,3199.6,3226z"/>
</g>
</svg>
