<?xml version="1.0" encoding="utf-8"?>
<!-- Generator: Adobe Illustrator 25.1.0, SVG Export Plug-In . SVG Version: 6.00 Build 0)  -->
<svg version="1.1" id="ARTWORK" xmlns="http://www.w3.org/2000/svg" xmlns:xlink="http://www.w3.org/1999/xlink" x="0px" y="0px"
	 viewBox="0 0 2000 2000" style="enable-background:new 0 0 2000 2000;" xml:space="preserve">
<style type="text/css">
	.st0{fill:#0C141C;}
	.st1{fill:#FFFFFF;}
</style>
<g id="_x32_">
</g>
<g id="_x31_">
	<g>
		<path class="st0" d="M1459.52,1348.53l-12.5-91.98c-0.77-5.69-3.73-10.84-8.21-14.3L945.79,861.08L839.3,1005.12l112.72,87.15
			c4.48,3.47,10.13,4.97,15.69,4.18l56.76-8.07c4.83-0.69,9.29,2.76,9.96,7.7l7.89,58.05c0.77,5.69,3.73,10.84,8.21,14.3
			l42.34,32.73c4.48,3.47,10.13,4.97,15.69,4.18l56.76-8.07c4.83-0.69,9.29,2.76,9.96,7.7l6.18,45.48
			c1.61,11.85,12.31,20.13,23.9,18.48l44.47-6.32c4.83-0.69,9.29,2.76,9.96,7.7l7.89,58.05c0.77,5.69,3.73,10.84,8.21,14.3
			l42.34,32.73c4.48,3.47,10.13,4.97,15.69,4.18l89.94-12.78c4.67-0.66,6.23-6.78,2.47-9.69l-440.53-340.58l10.65-14.4
			l454.61,351.47C1454.84,1356.51,1460.17,1353.31,1459.52,1348.53z"/>
		<ellipse class="st0" cx="745.73" cy="819.59" rx="264.86" ry="270.86"/>
		<ellipse class="st1" cx="745.73" cy="819.59" rx="238.37" ry="243.78"/>
		<ellipse class="st0" cx="745.73" cy="819.59" rx="225.13" ry="230.23"/>
		<ellipse class="st1" cx="631.64" cy="731.38" rx="52.97" ry="54.17"/>
	</g>
</g>
</svg>
