<?xml version="1.0" encoding="utf-8"?>
<!-- Generator: Adobe Illustrator 25.1.0, SVG Export Plug-In . SVG Version: 6.00 Build 0)  -->
<svg version="1.1" id="Layer_1" xmlns="http://www.w3.org/2000/svg" xmlns:xlink="http://www.w3.org/1999/xlink" x="0px" y="0px"
	 viewBox="0 0 400 400" style="enable-background:new 0 0 400 400;" xml:space="preserve">
<style type="text/css">
	.st0{fill:#0C141C;}
</style>
<path class="st0" d="M200,172.77c40.96-0.07,74.1-32.64,74.17-72.89C274.09,59.63,240.96,27.08,200,27
	c-40.96,0.08-74.1,32.63-74.17,72.88C125.9,140.13,159.04,172.7,200,172.77z M241.81,191.73h-83.62c-27.37,0-52.11,10.89-70.04,28.5
	c-17.93,17.63-29.01,41.93-29.01,68.82v67.61c39.55,15.59,88.23,24.81,140.85,24.81c52.64,0.01,101.32-9.22,140.86-24.81v-67.61
	c0-26.89-11.08-51.2-29.01-68.82C293.91,202.61,269.17,191.73,241.81,191.73z"/>
</svg>
