<?xml version="1.0" encoding="utf-8"?>
<!-- Generator: Adobe Illustrator 23.0.2, SVG Export Plug-In . SVG Version: 6.00 Build 0)  -->
<svg version="1.1" id="Layer_1" xmlns="http://www.w3.org/2000/svg" xmlns:xlink="http://www.w3.org/1999/xlink" x="0px" y="0px"
	 viewBox="0 0 1400 980" style="enable-background:new 0 0 1400 980;" xml:space="preserve">
<style type="text/css">
	.st0{fill:#FFFFFF;}
	.st1{opacity:0.28;fill:#FFFFFF;enable-background:new    ;}
	.st2{opacity:0.2;fill:#FFFFFF;enable-background:new    ;}
	.st3{opacity:0.21;fill:#FFFFFF;enable-background:new    ;}
	.st4{opacity:0.25;fill:#FFFFFF;enable-background:new    ;}
	.st5{opacity:0.24;fill:#FFFFFF;enable-background:new    ;}
	.st6{opacity:0.26;fill:#FFFFFF;enable-background:new    ;}
	.st7{opacity:0.27;fill:#FFFFFF;enable-background:new    ;}
	.st8{opacity:0.36;fill:#FFFFFF;enable-background:new    ;}
</style>
<g>
	<g>
		<path class="st0" d="M802.7,328.5c-31.3-15.5-57.6-42.3-57.9-42.5l-14,13.4l14-13.4l-28,26.8c1.3,1.4,33.3,34,73.5,54L802.7,328.5
			z"/>
		<polygon class="st0" points="792,369.7 805,328.2 800,325.8 787.3,367.5 		"/>
		<path class="st0" d="M786.9,354.3c0.2-1.2-0.6-2.5-1.9-3c-19.4-7.5-38.5-24.2-38.7-24.4c-1.1-0.9-2.5-0.9-3.2-0.1
			c-0.7,0.9-0.5,2.3,0.6,3.3c0.8,0.7,20.1,17.6,40.5,25.5c0.9,0.3,1.7,0.2,2.2-0.3C786.7,355,786.8,354.7,786.9,354.3z"/>
	</g>
	
		<rect x="672.4" y="332" transform="matrix(0.7071 -0.7071 0.7071 0.7071 -30.6576 591.9177)" class="st0" width="53.6" height="2"/>
	<path class="st0" d="M583.9,342.3l110.9-110.9l54.3,54.3l-14.8,48.6l-30.8-30.7l-55,55l-3.5-2.2c-6.1-3.8-14-2.9-19,2.1l-17.2,17.2
		L584,350.9C581.6,348.5,581.6,344.7,583.9,342.3z"/>
	<path class="st0" d="M707.4,390.9C707.4,390.9,707.3,390.8,707.4,390.9c-1.3-0.8-2.3-1.9-3-3.1l-10.2-16.4
		c-0.6-1.1-0.8-2.3-0.5-3.5l0.6-1.9c0.2-0.8-0.2-1.6-1-1.8l-3.4-1.1c-0.8-0.2-1.5-0.8-1.9-1.5l-5.3-10.7l-13.2-13.3l-21,21l4.6,7.8
		l20.5,37.7c0.4,0.7,1.3,1.1,2.1,0.8c5.1-1.7,23-7.6,31.2-10.3C708.6,394.1,708.9,391.8,707.4,390.9z"/>
	<path class="st1" d="M707.4,390.9c1.5,1,1.2,3.2-0.5,3.8c-8.2,2.7-26.1,8.6-31.2,10.3c-0.8,0.3-1.7-0.1-2.1-0.8l-20.5-37.7
		l-4.6-7.8l3.4-3.4l3.2,5.5l20.5,37.7c0.4,0.7,1.3,1.1,2.1,0.8c4.5-1.5,19.3-6.4,28.3-9.3C706.5,390.2,706.9,390.5,707.4,390.9
		C707.3,390.8,707.4,390.8,707.4,390.9z"/>
	
		<rect x="588.4" y="348.2" transform="matrix(0.7071 -0.7071 0.7071 0.7071 -83.0431 524.2893)" class="st0" width="5.9" height="28.3"/>
	
		<rect x="569.8" y="292.8" transform="matrix(0.7071 -0.7071 0.7071 0.7071 -23.5154 549.2776)" class="st0" width="162.9" height="20.5"/>
	
		<rect x="574.7" y="304.6" transform="matrix(0.7071 -0.7071 0.7071 0.7071 -25.544 554.1776)" class="st2" width="162.9" height="6.7"/>
	<path class="st0" d="M699.4,307.7l-50.9,50.9l-3.5-2.2c-6.1-3.8-14-2.9-19,2.1l-17.2,17.2l-7.8-7.8l79.4-79.4L699.4,307.7
		L699.4,307.7z"/>
	<path class="st2" d="M648.9,350.9l46.8-46.8l3.7,3.7l-50.9,50.8l-3.5-2.2c-6.1-3.8-14-2.9-19,2.1l-17.2,17.2l-7.8-7.8l4.1-4.1
		l4.2,4.2l17.2-17.2c5.1-5.1,13-6,19-2.1L648.9,350.9L648.9,350.9z"/>
	<path class="st0" d="M648,342.5c-1.2,1.2-1.2,3.2,0,4.4s3.2,1.2,4.4,0s1.2-3.2,0-4.4S649.2,341.2,648,342.5z"/>
	<path class="st0" d="M669.5,337.6l8.6-8.6c-4.5,11.4,3.7,13.7,6.5,14.1c0.6,0.1,1.2,0.4,1.6,0.8l1.7,1.7l-5.2,5.2L669.5,337.6
		L669.5,337.6z"/>
	<path class="st0" d="M694.3,333.4c0.4,0,0.5-0.6,0.1-0.7c-3.1-1.4-10.3-5.3-7.8-12.2l-4.2,4.2C682.5,324.7,684,334.2,694.3,333.4z"
		/>
	<path class="st0" d="M701.3,305.9L701.3,305.9c4.9,2.9,8.9,6.9,11.8,11.8l0,0l2.3-2.3l-11.9-11.8L701.3,305.9z"/>
	<polygon class="st3" points="741.9,278.5 749.1,285.7 734.3,334.3 727.6,327.6 	"/>
	<path class="st0" d="M731.7,335.7L731.7,335.7c-0.7-0.7-0.9-1.7-0.5-2.7l15.3-50.6c0.7-1.6,2.8-2.1,4-0.8l0,0
		c0.7,0.7,0.9,1.7,0.5,2.7l-15.2,50.6C735.1,336.5,733,337,731.7,335.7z"/>
	
		<rect x="574.7" y="306.6" transform="matrix(0.7071 -0.7071 0.7071 0.7071 -42.7946 520.4841)" class="st0" width="64.3" height="10.6"/>
	<path class="st0" d="M593.9,324.5l-4.5-4.5c-0.9-0.9-2.5-0.9-3.4,0l-8.3,8.3c-0.9,0.9-0.9,2.5,0,3.4l4.5,4.5c0.9,0.9,2.5,0.9,3.4,0
		l8.3-8.3C594.9,327,594.9,325.5,593.9,324.5z"/>
	<path class="st0" d="M640.3,250.5l41.8-41.8c2.1-2.1,5.6-1.9,7.4,0.5l11.8,15.7l-67.9,67.9l-8.9-8.9l-5-12.7l-16.6-16.6
		c-0.7-0.7-0.7-1.9,0-2.6l8.9-8.9c3.4-3.4,8.6-4.1,12.7-1.7L640.3,250.5L640.3,250.5z"/>
	<path class="st0" d="M629.6,263.4c-2.3,2.3-2.3,6.1,0,8.4s6.1,2.3,8.4,0c2.3-2.3,2.3-6.1,0-8.4S631.9,261.1,629.6,263.4z"/>
	<path class="st0" d="M629.6,263.4c-2.3,2.3-2.3,6.1,0,8.4s6.1,2.3,8.4,0c2.3-2.3,2.3-6.1,0-8.4S631.9,261.1,629.6,263.4z"/>
	<path class="st0" d="M664,235.8c-2.3,2.3-2.3,6.1,0,8.4s6.1,2.3,8.4,0c2.3-2.3,2.3-6.1,0-8.4C670.1,233.4,666.4,233.4,664,235.8z"
		/>
	<polygon class="st4" points="698.5,221.2 701.3,224.9 633.4,292.9 630.1,289.6 	"/>
	<g>
		
			<rect x="587.1" y="353.8" transform="matrix(0.7071 -0.7071 0.7071 0.7071 -86.3676 523.3773)" class="st0" width="2.9" height="24.3"/>
		<path class="st0" d="M499.1,480.9l-23.4-23.3c-1.8-1.8-0.7-5.1,2-6l1.7-0.5c2.6-0.8,5-2.3,6.9-4.3l89.4-89.4
			c0.6-0.6,1.6-0.7,2.1-0.2l21.5,21.5c0.5,0.5,0.5,1.5-0.2,2.1L499.1,480.9L499.1,480.9z"/>
		<path class="st0" d="M581.8,399.7L565,382.9l-80.9,80.9c-2.6,2.6-2.6,6.7,0,9.3l19.1,19.1l78.6-78.6
			C585.7,409.8,585.7,403.5,581.8,399.7z"/>
		<polygon class="st0" points="503.2,492.2 561.1,434.4 573.9,447.1 542.9,489.9 543.4,532.4 		"/>
		<path class="st0" d="M546.4,480.8l0.4-18.6c0-0.8,0.3-1.5,0.9-2.1l13.9-13.9c1.2-1.2,3.1-1.2,4.2,0l7.7,7.7l-9.4,13.4l-5.1,20.3
			c-0.6,2.4-3.6,3.3-5.4,1.5l-6.2-6.2C546.7,482.4,546.4,481.6,546.4,480.8z"/>
		<path class="st0" d="M538.5,499.6c1.7-2.6,5.6-1.9,6.3,1.1l8.4,36.6c0.4,1.8-1.8,3.1-3.2,1.7l-22.4-22.4L538.5,499.6z"/>
		<path class="st0" d="M520.5,460.5l-1.1-1.1c-0.2-0.2-0.6-0.2-0.8,0l-19.5,19.5c-0.2,0.2-0.2,0.6,0,0.8l1.1,1.1
			c0.2,0.2,0.6,0.2,0.8,0l19.5-19.5C520.7,461.1,520.7,460.8,520.5,460.5z"/>
		<path class="st0" d="M546.2,434.8l-1.1-1.1c-0.2-0.2-0.6-0.2-0.8,0l-19.5,19.5c-0.2,0.2-0.2,0.6,0,0.8l1.1,1.1
			c0.2,0.2,0.6,0.2,0.8,0l19.5-19.5C546.4,435.4,546.4,435,546.2,434.8z"/>
		<path class="st0" d="M571.9,409l-1.1-1.1c-0.2-0.2-0.6-0.2-0.8,0l-19.5,19.5c-0.2,0.2-0.2,0.6,0,0.8l1.1,1.1
			c0.2,0.2,0.6,0.2,0.8,0l19.5-19.5C572.2,409.6,572.2,409.3,571.9,409z"/>
		<path class="st0" d="M525.1,465.1L524,464c-0.2-0.2-0.6-0.2-0.8,0l-19.6,19.6c-0.2,0.2-0.2,0.6,0,0.8l1.1,1.1
			c0.2,0.2,0.6,0.2,0.8,0L525,466C525.3,465.7,525.3,465.4,525.1,465.1z"/>
		<path class="st0" d="M550.8,439.4l-1.1-1.1c-0.2-0.2-0.6-0.2-0.8,0l-19.5,19.5c-0.2,0.2-0.2,0.6,0,0.8l1.1,1.1
			c0.2,0.2,0.6,0.2,0.8,0l19.5-19.5C551,440,551,439.6,550.8,439.4z"/>
		<path class="st0" d="M576.5,413.7l-1.1-1.1c-0.2-0.2-0.6-0.2-0.8,0l-19.5,19.5c-0.2,0.2-0.2,0.6,0,0.8l1.1,1.1
			c0.2,0.2,0.6,0.2,0.8,0l19.5-19.5C576.8,414.3,576.8,413.9,576.5,413.7z"/>
		<path class="st0" d="M516.8,461.1l-18.4,18.5L516.8,461.1z"/>
	</g>
	<g>
		<polygon class="st0" points="735.1,243.9 727.6,260 699.1,231.5 715.2,224 		"/>
		<polygon class="st5" points="735.1,243.9 727.6,260 716.2,248.7 727.7,237.2 		"/>
		
			<rect x="723.8" y="218.5" transform="matrix(0.7071 -0.7071 0.7071 0.7071 48.873 581.3463)" class="st0" width="4.7" height="26.4"/>
		<path class="st0" d="M843.5,134.7l-20.4-20.4c-1.3-1.3-3.4-1.3-4.7,0L718.7,212c-2.5,2.4-2.5,6.4,0,8.8l18.2,18.2
			c2.4,2.4,6.4,2.4,8.8,0l97.7-99.7C844.8,138.1,844.8,136,843.5,134.7z"/>
		<path class="st0" d="M846.3,128l-16.5-16.5c-0.6-0.6-1.6-0.6-2.2,0l-3.7,3.7l18.7,18.7l3.7-3.7C846.9,129.6,846.9,128.6,846.3,128
			z"/>
		<path class="st6" d="M846.3,128l-4.4-4.4l-4.8,4.8l5.5,5.5l3.7-3.7C846.9,129.6,846.9,128.6,846.3,128z"/>
		
			<rect x="821.1" y="73.3" transform="matrix(0.7071 -0.7071 0.7071 0.7071 201.7746 644.6739)" class="st0" width="115.9" height="11"/>
		
			<rect x="823.7" y="79.4" transform="matrix(0.7071 -0.7071 0.7071 0.7071 200.7487 647.2386)" class="st0" width="115.9" height="3.7"/>
		
			<rect x="903.7" y="28.7" transform="matrix(0.7071 -0.7071 0.7071 0.7071 245.0183 662.5356)" class="st0" width="37.2" height="13.7"/>
		
			<rect x="914.4" y="22.9" transform="matrix(0.7071 -0.7071 0.7071 0.7071 249.4357 664.3522)" class="st0" width="24.6" height="16.4"/>
		
			<rect x="917.9" y="31.4" transform="matrix(0.7071 -0.7071 0.7071 0.7071 247.9566 667.8876)" class="st7" width="24.6" height="6.5"/>
		
			<rect x="907.8" y="37.4" transform="matrix(0.7071 -0.7071 0.7071 0.7071 234.9006 658.3273)" class="st0" width="8.7" height="16.4"/>
		
			<rect x="911.3" y="45.9" transform="matrix(0.7071 -0.7071 0.7071 0.7071 233.4214 661.8626)" class="st7" width="8.7" height="6.5"/>
		<g>
			<polygon class="st0" points="779.7,204.4 778.4,205.8 752,179.4 753.4,178.1 			"/>
			<polygon class="st0" points="765.4,219.1 764,220.5 737.4,193.8 738.7,192.4 			"/>
			<polygon class="st0" points="736.8,222.3 722.7,208.2 724.1,206.8 738.2,220.9 751,233.7 749.7,235.1 			"/>
			<polygon class="st0" points="794.1,189.8 792.8,191.2 766.7,165.1 768,163.7 			"/>
			<polygon class="st0" points="837.2,145.8 835.9,147.2 810.6,122 812,120.6 			"/>
			<polygon class="st0" points="808.5,175.1 807.1,176.5 781.3,150.7 782.7,149.3 			"/>
			<polygon class="st0" points="822.8,160.5 821.5,161.9 796,136.3 797.3,135 			"/>
		</g>
		
			<rect x="706.6" y="175.8" transform="matrix(0.7071 -0.7071 0.7071 0.7071 103.0126 604.5312)" class="st0" width="149.2" height="4.3"/>
		<path class="st0" d="M851.3,90.1l2.4,2.4l0.5,0.5l10,10c0.6,0.6,0.6,1.6,0,2.2l-1.2,1.2c-0.6,0.6-1.6,0.6-2.2,0l-10-10L836.2,111
			l10,10c0.6,0.6,0.6,1.6,0,2.2l-0.9,0.9c-0.7,0.7-1.9,0.7-2.6,0l-9.8-9.8l-0.5-0.5l-0.8-0.8c-0.9-0.9-0.9-2.4,0-3.3L851.3,90.1z"/>
		<path class="st0" d="M830.5,72.7l1.1,35.9c0,0.5,0.6,0.7,0.9,0.4l18.9-18.9l-18.3-18.3C832,70.8,830.4,71.4,830.5,72.7z
			 M834.3,77.3l12.5,12.5c0.3,0.3,0.3,0.7,0,1L835,102.6c-0.2,0.2-0.5,0-0.5-0.2l-0.7-24.9C833.7,77.2,834.1,77.1,834.3,77.3
			L834.3,77.3z"/>
		<path class="st6" d="M733.2,235.4l105.5-105.5l4.8,4.8c1.3,1.3,1.3,3.4,0,4.7l-97.7,99.7c-2.4,2.5-6.4,2.5-8.8,0L733.2,235.4
			L733.2,235.4z"/>
		<path class="st8" d="M860.7,99.5l3.5,3.5c0.6,0.6,0.6,1.6,0,2.2l-1.2,1.2c-0.6,0.6-1.6,0.6-2.2,0l-3.5-3.5L860.7,99.5z"/>
		<path class="st8" d="M839.5,120.8l3.3-3.3l3.5,3.5c0.6,0.6,0.6,1.6,0,2.2l-0.9,0.9c-0.7,0.7-1.9,0.7-2.6,0L839.5,120.8
			L839.5,120.8z"/>
		
			<rect x="710.3" y="229.6" transform="matrix(0.7071 -0.7071 0.7071 0.7071 34.0273 575.7433)" class="st0" width="3.3" height="34.4"/>
	</g>
	
		<rect x="658.7" y="265.9" transform="matrix(0.7071 -0.7071 0.7071 0.7071 8.5853 565.5451)" class="st0" width="56.5" height="13.1"/>
	
		<rect x="607" y="287.8" transform="matrix(0.7071 -0.7071 0.7071 0.7071 -25.8172 520.2225)" class="st0" width="16.1" height="7"/>
	<polygon class="st0" points="610.3,291.1 606.9,294.5 597.6,290.3 601,286.9 	"/>
	<path class="st0" d="M595.3,285c-1.8,1.8-1.8,4.8,0,6.7c1.8,1.8,4.8,1.8,6.7,0c1.8-1.8,1.8-4.8,0-6.7S597.1,283.1,595.3,285z"/>
</g>
<g>
	<path class="st0" d="M510.2,764.4h11l9,25.1l9.2-25.1h10.9l-12.6,32.9l11,27.1l23-60.3h12.8L554,838h-10l-13.7-33.1L516.5,838h-10
		L476,764.1h12.7l23.1,60.3l11-27.1L510.2,764.4z"/>
	<path class="st0" d="M609.8,839c-4.2,0-8.1-0.7-11.5-2.2c-3.5-1.5-6.4-3.5-8.9-6.1c-2.5-2.6-4.4-5.5-5.7-8.9c-1.4-3.4-2-7-2-10.8
		c0-3.8,0.7-7.4,2-10.9c1.4-3.4,3.3-6.4,5.7-9c2.5-2.6,5.4-4.6,8.9-6.1c3.5-1.5,7.3-2.2,11.6-2.2c4.2,0,8.1,0.8,11.5,2.3
		c3.4,1.5,6.4,3.6,8.8,6.1c2.4,2.5,4.3,5.5,5.6,8.8c1.3,3.4,1.9,6.9,1.9,10.6c0,0.8,0,1.6-0.1,2.3c-0.1,0.7-0.1,1.3-0.2,1.8h-43.6
		c0.2,2.4,0.8,4.6,1.7,6.6c0.9,1.9,2.1,3.6,3.6,5c1.5,1.4,3.2,2.5,5.1,3.3c1.9,0.8,3.9,1.1,6,1.1c1.5,0,3-0.2,4.5-0.6
		c1.5-0.4,2.9-0.9,4.1-1.7c1.2-0.7,2.4-1.6,3.3-2.7c1-1,1.7-2.2,2.3-3.4l9.8,2.8c-1.9,4.1-5,7.4-9.3,10
		C620.6,837.7,615.5,839,609.8,839z M626.3,806.7c-0.2-2.3-0.8-4.4-1.7-6.3c-0.9-1.9-2.1-3.6-3.6-4.9c-1.5-1.4-3.2-2.4-5.1-3.2
		c-1.9-0.8-4-1.1-6.1-1.1c-2.1,0-4.2,0.4-6.1,1.1c-1.9,0.8-3.6,1.8-5,3.2c-1.5,1.4-2.6,3-3.5,4.9c-0.9,1.9-1.5,4.1-1.7,6.3H626.3z"
		/>
	<path class="st0" d="M661.5,839c-2.6,0-5.1-0.4-7.3-1.3c-2.3-0.9-4.2-2.1-5.8-3.6c-1.6-1.5-2.9-3.3-3.8-5.4s-1.4-4.3-1.4-6.8
		c0-2.6,0.6-4.9,1.7-7c1.1-2.1,2.7-3.9,4.7-5.4c2-1.5,4.5-2.7,7.3-3.5s5.9-1.2,9.3-1.2c2.6,0,5.1,0.2,7.6,0.7
		c2.5,0.5,4.7,1.1,6.8,1.8v-3.7c0-4-1.1-7.2-3.4-9.4c-2.3-2.3-5.6-3.4-9.9-3.4c-2.9,0-5.8,0.5-8.6,1.6c-2.8,1.1-5.7,2.6-8.7,4.6
		l-3.5-7.3c7-4.7,14.3-7.1,21.8-7.1c7.5,0,13.3,1.9,17.5,5.7c4.2,3.8,6.2,9.3,6.2,16.4v19.7c0,2.4,1,3.7,3,3.7v9.8
		c-1.1,0.2-2.1,0.3-2.9,0.4c-0.8,0.1-1.6,0.1-2.3,0.1c-2.2,0-3.9-0.6-5.1-1.7c-1.2-1.1-2-2.5-2.2-4.3l-0.3-3.4
		c-2.4,3.2-5.4,5.6-9,7.3C669.4,838.1,665.6,839,661.5,839z M664.6,830.6c2.8,0,5.4-0.5,7.9-1.5c2.5-1,4.4-2.4,5.8-4.2
		c1.5-1.2,2.2-2.6,2.2-4v-7.2c-1.9-0.8-4-1.4-6.2-1.8s-4.3-0.6-6.4-0.6c-4.1,0-7.4,0.9-10,2.7c-2.6,1.8-3.9,4.1-3.9,7
		c0,2.7,1,5,3,6.8C658.9,829.7,661.5,830.6,664.6,830.6z"/>
	<path class="st0" d="M736.6,839c-4.4,0-8.2-1-11.5-3.1s-6-4.8-7.9-8.1v32.3h-11.4v-76.5h10.1v9.8c2.1-3.3,4.8-5.9,8.1-7.8
		c3.3-1.9,7-2.9,11.2-2.9c3.7,0,7.2,0.8,10.3,2.3c3.1,1.5,5.8,3.6,8.1,6.1c2.3,2.6,4.1,5.5,5.4,8.9c1.3,3.4,1.9,7,1.9,10.7
		c0,4-0.6,7.6-1.8,11.1c-1.2,3.4-2.8,6.4-5,8.9c-2.1,2.5-4.7,4.5-7.6,6C743.3,838.3,740.1,839,736.6,839z M732.8,829.2
		c2.4,0,4.6-0.5,6.6-1.6s3.7-2.4,5.1-4.2c1.4-1.7,2.5-3.7,3.3-5.9c0.8-2.2,1.1-4.5,1.1-6.9c0-2.5-0.4-4.9-1.3-7.1
		c-0.9-2.2-2-4.2-3.5-5.8c-1.5-1.7-3.3-3-5.4-4c-2.1-1-4.3-1.5-6.8-1.5c-1.5,0-3,0.3-4.6,0.8c-1.6,0.6-3.1,1.3-4.5,2.3
		c-1.4,1-2.6,2.1-3.6,3.4c-1,1.3-1.8,2.7-2.2,4.2v14.2c0.7,1.7,1.6,3.2,2.7,4.7c1.1,1.5,2.3,2.7,3.7,3.7s2.8,1.9,4.4,2.5
		C729.5,828.9,731.1,829.2,732.8,829.2z"/>
	<path class="st0" d="M795.4,839c-4.3,0-8.2-0.8-11.6-2.3c-3.4-1.5-6.4-3.6-8.8-6.1c-2.4-2.6-4.3-5.6-5.6-9c-1.3-3.4-2-7-2-10.8
		c0-3.7,0.7-7.3,2-10.8c1.3-3.4,3.2-6.4,5.7-9c2.5-2.6,5.4-4.6,8.8-6.1c3.4-1.5,7.3-2.3,11.5-2.3c4.2,0,8.1,0.8,11.5,2.3
		c3.4,1.5,6.4,3.6,8.8,6.1c2.5,2.6,4.4,5.6,5.7,9c1.3,3.4,2,7,2,10.8c0,3.7-0.7,7.3-2,10.8c-1.3,3.4-3.2,6.4-5.7,9
		c-2.5,2.6-5.4,4.6-8.8,6.1C803.5,838.2,799.6,839,795.4,839z M779.2,810.9c0,2.6,0.4,5.1,1.2,7.3c0.8,2.2,2,4.1,3.4,5.8
		c1.5,1.6,3.2,2.9,5.1,3.8c2,0.9,4.1,1.4,6.4,1.4s4.4-0.5,6.4-1.4c2-0.9,3.7-2.2,5.1-3.9s2.6-3.6,3.4-5.8c0.8-2.2,1.2-4.6,1.2-7.3
		c0-2.6-0.4-5-1.2-7.2c-0.8-2.3-2-4.2-3.4-5.9s-3.2-3-5.1-3.9c-2-0.9-4.1-1.4-6.4-1.4c-2.2,0-4.3,0.5-6.3,1.5c-2,1-3.7,2.3-5.1,4
		c-1.5,1.7-2.6,3.6-3.5,5.9C779.6,805.9,779.2,808.4,779.2,810.9z"/>
	<path class="st0" d="M882.4,838h-11.4v-30.5c0-5.1-0.8-8.9-2.4-11.2c-1.6-2.3-4-3.5-7.2-3.5c-1.7,0-3.3,0.3-5,0.9s-3.2,1.5-4.7,2.7
		c-1.5,1.1-2.8,2.5-3.9,4.1c-1.1,1.6-2,3.3-2.7,5.1V838h-11.4v-54.4H844v10.9c2.1-3.7,5.1-6.6,9-8.7c4-2.1,8.3-3.2,13.1-3.2
		c3.3,0,5.9,0.6,8,1.8c2.1,1.2,3.7,2.8,4.9,4.8c1.2,2,2.1,4.4,2.5,7.1c0.5,2.7,0.7,5.5,0.7,8.5V838z"/>
	<path class="st0" d="M915.4,839c-4.4,0-8.7-0.7-13.1-2.1c-4.3-1.4-8.1-3.4-11.2-6.1l4.6-7.3c3.3,2.4,6.5,4.1,9.7,5.4
		c3.2,1.2,6.4,1.8,9.8,1.8c3.4,0,6.1-0.7,8.1-2c2-1.3,3-3.2,3-5.6c0-2.3-1.1-4-3.3-5c-2.2-1-5.7-2.2-10.4-3.4
		c-3.4-0.9-6.3-1.8-8.7-2.6c-2.4-0.8-4.4-1.8-5.9-2.9c-1.5-1.1-2.6-2.4-3.3-3.8c-0.7-1.5-1-3.2-1-5.3c0-2.8,0.5-5.2,1.6-7.4
		c1.1-2.1,2.6-4,4.5-5.5c1.9-1.5,4.1-2.6,6.7-3.4c2.6-0.8,5.3-1.1,8.3-1.1c4.1,0,7.9,0.6,11.4,1.9s6.7,3.1,9.5,5.4l-4.9,6.9
		c-5.1-4-10.4-6-16.1-6c-2.9,0-5.4,0.6-7.3,1.8c-2,1.2-3,3.1-3,5.8c0,1.1,0.2,2,0.6,2.8c0.4,0.8,1.1,1.4,2,2
		c0.9,0.6,2.1,1.1,3.6,1.5c1.5,0.5,3.3,1,5.6,1.5c3.7,0.9,6.8,1.8,9.5,2.7c2.7,0.9,4.9,2,6.6,3.2c1.7,1.2,3,2.6,3.8,4.3
		c0.8,1.6,1.2,3.6,1.2,5.9c0,5.2-2,9.3-5.9,12.3C927.5,837.5,922.2,839,915.4,839z"/>
</g>
</svg>
