<?xml version="1.0" encoding="utf-8"?>
<!-- Generator: Adobe Illustrator 23.0.2, SVG Export Plug-In . SVG Version: 6.00 Build 0)  -->
<svg version="1.1" id="Layer_1" xmlns="http://www.w3.org/2000/svg" xmlns:xlink="http://www.w3.org/1999/xlink" x="0px" y="0px"
	 viewBox="0 0 1400 980" style="enable-background:new 0 0 1400 980;" xml:space="preserve">
<style type="text/css">
	.st0{fill:#FFFFFF;}
	.st1{opacity:0.28;fill:#FFFFFF;enable-background:new    ;}
	.st2{opacity:0.2;fill:#FFFFFF;enable-background:new    ;}
	.st3{opacity:0.21;fill:#FFFFFF;enable-background:new    ;}
	.st4{opacity:0.25;fill:#FFFFFF;enable-background:new    ;}
	.st5{opacity:0.24;fill:#FFFFFF;enable-background:new    ;}
	.st6{opacity:0.26;fill:#FFFFFF;enable-background:new    ;}
	.st7{opacity:0.27;fill:#FFFFFF;enable-background:new    ;}
	.st8{opacity:0.36;fill:#FFFFFF;enable-background:new    ;}
</style>
<g>
	<g>
		<path class="st0" d="M774.9,515.9c-31.3-15.5-57.6-42.3-57.9-42.5l-14,13.4l14-13.4l-28,26.8c1.3,1.4,33.3,34,73.5,54L774.9,515.9
			z"/>
		<polygon class="st0" points="764.2,557.1 777.2,515.6 772.2,513.2 759.5,554.9 		"/>
		<path class="st0" d="M759.1,541.7c0.2-1.2-0.6-2.5-1.9-3c-19.4-7.5-38.5-24.2-38.7-24.4c-1.1-0.9-2.5-0.9-3.2-0.1
			c-0.7,0.9-0.5,2.3,0.6,3.3c0.8,0.7,20.1,17.6,40.5,25.5c0.9,0.3,1.7,0.2,2.2-0.3C758.9,542.4,759,542.1,759.1,541.7z"/>
	</g>
	
		<rect x="644.6" y="519.4" transform="matrix(0.7071 -0.7071 0.7071 0.7071 -171.3543 627.1574)" class="st0" width="53.6" height="2"/>
	<path class="st0" d="M556.1,529.7L667,418.8l54.3,54.3l-14.8,48.6L675.7,491l-55,55l-3.5-2.2c-6.1-3.8-14-2.9-19,2.1l-17.2,17.2
		l-24.8-24.8C553.8,535.9,553.8,532.1,556.1,529.7z"/>
	<path class="st0" d="M679.6,578.3C679.6,578.3,679.5,578.2,679.6,578.3c-1.3-0.8-2.3-1.9-3-3.1l-10.2-16.4
		c-0.6-1.1-0.8-2.3-0.5-3.5l0.6-1.9c0.2-0.8-0.2-1.6-1-1.8l-3.4-1.1c-0.8-0.2-1.5-0.8-1.9-1.5l-5.3-10.7L641.7,525l-21,21l4.6,7.8
		l20.5,37.7c0.4,0.7,1.3,1.1,2.1,0.8c5.1-1.7,23-7.6,31.2-10.3C680.8,581.5,681.1,579.2,679.6,578.3z"/>
	<path class="st1" d="M679.6,578.3c1.5,1,1.2,3.2-0.5,3.8c-8.2,2.7-26.1,8.6-31.2,10.3c-0.8,0.3-1.7-0.1-2.1-0.8l-20.5-37.7
		l-4.6-7.8l3.4-3.4l3.2,5.5l20.5,37.7c0.4,0.7,1.3,1.1,2.1,0.8c4.5-1.5,19.3-6.4,28.3-9.3C678.7,577.6,679.1,577.9,679.6,578.3
		C679.5,578.2,679.6,578.2,679.6,578.3z"/>
	
		<rect x="560.6" y="535.7" transform="matrix(0.7071 -0.7071 0.7071 0.7071 -223.7451 559.4934)" class="st0" width="5.9" height="28.3"/>
	
		<rect x="542" y="480.2" transform="matrix(0.7071 -0.7071 0.7071 0.7071 -164.1712 584.4883)" class="st0" width="162.9" height="20.5"/>
	
		<rect x="546.9" y="492" transform="matrix(0.7071 -0.7071 0.7071 0.7071 -166.2004 589.387)" class="st2" width="162.9" height="6.7"/>
	<path class="st0" d="M671.6,495.1L620.7,546l-3.5-2.2c-6.1-3.8-14-2.9-19,2.1l-17.2,17.2l-7.8-7.8l79.4-79.4L671.6,495.1
		L671.6,495.1z"/>
	<path class="st2" d="M621.1,538.3l46.8-46.8l3.7,3.7L620.7,546l-3.5-2.2c-6.1-3.8-14-2.9-19,2.1l-17.2,17.2l-7.8-7.8l4.1-4.1
		l4.2,4.2l17.2-17.2c5.1-5.1,13-6,19-2.1L621.1,538.3L621.1,538.3z"/>
	<path class="st0" d="M620.2,529.9c-1.2,1.2-1.2,3.2,0,4.4c1.2,1.2,3.2,1.2,4.4,0c1.2-1.2,1.2-3.2,0-4.4
		C623.4,528.7,621.4,528.6,620.2,529.9z"/>
	<path class="st0" d="M641.7,525l8.6-8.6c-4.5,11.4,3.7,13.7,6.5,14.1c0.6,0.1,1.2,0.4,1.6,0.8l1.7,1.7l-5.2,5.2L641.7,525
		L641.7,525z"/>
	<path class="st0" d="M666.5,520.8c0.4,0,0.5-0.6,0.1-0.7c-3.1-1.4-10.3-5.3-7.8-12.2l-4.2,4.2C654.7,512.1,656.2,521.6,666.5,520.8
		z"/>
	<path class="st0" d="M673.5,493.3L673.5,493.3c4.9,2.9,8.9,6.9,11.8,11.8l0,0l2.3-2.3L675.7,491L673.5,493.3z"/>
	<polygon class="st3" points="714.1,465.9 721.3,473.1 706.5,521.7 699.8,515 	"/>
	<path class="st0" d="M703.9,523.1L703.9,523.1c-0.7-0.7-0.9-1.7-0.5-2.7l15.3-50.6c0.7-1.6,2.8-2.1,4-0.8l0,0
		c0.7,0.7,0.9,1.7,0.5,2.7L708,522.3C707.3,523.9,705.2,524.4,703.9,523.1z"/>
	
		<rect x="546.9" y="494" transform="matrix(0.7071 -0.7071 0.7071 0.7071 -183.4303 555.7106)" class="st0" width="64.3" height="10.6"/>
	<path class="st0" d="M566.1,511.9l-4.5-4.5c-0.9-0.9-2.5-0.9-3.4,0l-8.3,8.3c-0.9,0.9-0.9,2.5,0,3.4l4.5,4.5c0.9,0.9,2.5,0.9,3.4,0
		l8.3-8.3C567.1,514.4,567.1,512.9,566.1,511.9z"/>
	<path class="st0" d="M612.5,437.9l41.8-41.8c2.1-2.1,5.6-1.9,7.4,0.5l11.8,15.7l-67.9,67.9l-8.9-8.9l-5-12.7l-16.6-16.6
		c-0.7-0.7-0.7-1.9,0-2.6l8.9-8.9c3.4-3.4,8.6-4.1,12.7-1.7L612.5,437.9L612.5,437.9z"/>
	<path class="st0" d="M601.8,450.8c-2.3,2.3-2.3,6.1,0,8.4c2.3,2.3,6.1,2.3,8.4,0c2.3-2.3,2.3-6.1,0-8.4
		C607.9,448.5,604.1,448.5,601.8,450.8z"/>
	<path class="st0" d="M601.8,450.8c-2.3,2.3-2.3,6.1,0,8.4c2.3,2.3,6.1,2.3,8.4,0c2.3-2.3,2.3-6.1,0-8.4
		C607.9,448.5,604.1,448.5,601.8,450.8z"/>
	<path class="st0" d="M636.2,423.2c-2.3,2.3-2.3,6.1,0,8.4s6.1,2.3,8.4,0c2.3-2.3,2.3-6.1,0-8.4
		C642.3,420.8,638.6,420.8,636.2,423.2z"/>
	<polygon class="st4" points="670.7,408.6 673.5,412.3 605.6,480.3 602.3,477 	"/>
	<g>
		
			<rect x="559.3" y="541.2" transform="matrix(0.7071 -0.7071 0.7071 0.7071 -227.0032 558.5957)" class="st0" width="2.9" height="24.3"/>
		<path class="st0" d="M471.3,668.3L447.9,645c-1.8-1.8-0.7-5.1,2-6l1.7-0.5c2.6-0.8,5-2.3,6.9-4.3l89.4-89.4
			c0.6-0.6,1.6-0.7,2.1-0.2l21.5,21.5c0.5,0.5,0.5,1.5-0.2,2.1L471.3,668.3L471.3,668.3z"/>
		<path class="st0" d="M554,587.1l-16.8-16.8l-80.9,80.9c-2.6,2.6-2.6,6.7,0,9.3l19.1,19.1L554,601
			C557.9,597.2,557.9,590.9,554,587.1z"/>
		<polygon class="st0" points="475.4,679.6 533.3,621.8 546.1,634.5 515.1,677.3 515.6,719.8 		"/>
		<path class="st0" d="M518.6,668.2l0.4-18.6c0-0.8,0.3-1.5,0.9-2.1l13.9-13.9c1.2-1.2,3.1-1.2,4.2,0l7.7,7.7l-9.4,13.4l-5.1,20.3
			c-0.6,2.4-3.6,3.3-5.4,1.5l-6.2-6.2C518.9,669.8,518.6,669,518.6,668.2z"/>
		<path class="st0" d="M510.7,687c1.7-2.6,5.6-1.9,6.3,1.1l8.4,36.6c0.4,1.8-1.8,3.1-3.2,1.7L499.8,704L510.7,687z"/>
		<path class="st0" d="M492.7,647.9l-1.1-1.1c-0.2-0.2-0.6-0.2-0.8,0l-19.5,19.5c-0.2,0.2-0.2,0.6,0,0.8l1.1,1.1
			c0.2,0.2,0.6,0.2,0.8,0l19.5-19.5C492.9,648.5,492.9,648.2,492.7,647.9z"/>
		<path class="st0" d="M518.4,622.2l-1.1-1.1c-0.2-0.2-0.6-0.2-0.8,0l-19.5,19.5c-0.2,0.2-0.2,0.6,0,0.8l1.1,1.1
			c0.2,0.2,0.6,0.2,0.8,0l19.5-19.5C518.6,622.8,518.6,622.4,518.4,622.2z"/>
		<path class="st0" d="M544.1,596.4l-1.1-1.1c-0.2-0.2-0.6-0.2-0.8,0l-19.5,19.5c-0.2,0.2-0.2,0.6,0,0.8l1.1,1.1
			c0.2,0.2,0.6,0.2,0.8,0l19.5-19.5C544.4,597,544.4,596.7,544.1,596.4z"/>
		<path class="st0" d="M497.3,652.5l-1.1-1.1c-0.2-0.2-0.6-0.2-0.8,0L475.8,671c-0.2,0.2-0.2,0.6,0,0.8l1.1,1.1
			c0.2,0.2,0.6,0.2,0.8,0l19.5-19.5C497.5,653.1,497.5,652.8,497.3,652.5z"/>
		<path class="st0" d="M523,626.8l-1.1-1.1c-0.2-0.2-0.6-0.2-0.8,0l-19.5,19.5c-0.2,0.2-0.2,0.6,0,0.8l1.1,1.1
			c0.2,0.2,0.6,0.2,0.8,0l19.5-19.5C523.2,627.4,523.2,627,523,626.8z"/>
		<path class="st0" d="M548.7,601.1l-1.1-1.1c-0.2-0.2-0.6-0.2-0.8,0l-19.5,19.5c-0.2,0.2-0.2,0.6,0,0.8l1.1,1.1
			c0.2,0.2,0.6,0.2,0.8,0l19.5-19.5C549,601.7,549,601.3,548.7,601.1z"/>
		<path class="st0" d="M489,648.5L470.6,667L489,648.5z"/>
	</g>
	<g>
		<polygon class="st0" points="707.3,431.3 699.8,447.4 671.3,418.9 687.4,411.4 		"/>
		<polygon class="st5" points="707.3,431.3 699.8,447.4 688.4,436.1 699.9,424.6 		"/>
		
			<rect x="696" y="405.9" transform="matrix(0.7071 -0.7071 0.7071 0.7071 -91.777 616.5554)" class="st0" width="4.7" height="26.4"/>
		<path class="st0" d="M815.7,322.1l-20.4-20.4c-1.3-1.3-3.4-1.3-4.7,0l-99.7,97.7c-2.5,2.4-2.5,6.4,0,8.8l18.2,18.2
			c2.4,2.4,6.4,2.4,8.8,0l97.7-99.7C817,325.5,817,323.4,815.7,322.1z"/>
		<path class="st0" d="M818.5,315.4L802,298.9c-0.6-0.6-1.6-0.6-2.2,0l-3.7,3.7l18.7,18.7l3.7-3.7C819.1,317,819.1,316,818.5,315.4z
			"/>
		<path class="st6" d="M818.5,315.4l-4.4-4.4l-4.8,4.8l5.5,5.5l3.7-3.7C819.1,317,819.1,316,818.5,315.4z"/>
		
			<rect x="793.3" y="260.7" transform="matrix(0.7071 -0.7071 0.7071 0.7071 61.117 679.8819)" class="st0" width="115.9" height="11"/>
		
			<rect x="795.9" y="266.9" transform="matrix(0.7071 -0.7071 0.7071 0.7071 60.0583 682.438)" class="st0" width="115.9" height="3.7"/>
		
			<rect x="875.9" y="216.1" transform="matrix(0.7071 -0.7071 0.7071 0.7071 104.2999 697.7771)" class="st0" width="37.2" height="13.7"/>
		
			<rect x="886.6" y="210.3" transform="matrix(0.7071 -0.7071 0.7071 0.7071 108.7368 699.6109)" class="st0" width="24.6" height="16.4"/>
		
			<rect x="890.1" y="218.8" transform="matrix(0.7071 -0.7071 0.7071 0.7071 107.2797 703.1287)" class="st7" width="24.6" height="6.5"/>
		
			<rect x="880" y="224.8" transform="matrix(0.7071 -0.7071 0.7071 0.7071 94.2318 693.6027)" class="st0" width="8.7" height="16.4"/>
		
			<rect x="883.5" y="233.3" transform="matrix(0.7071 -0.7071 0.7071 0.7071 92.7747 697.1205)" class="st7" width="8.7" height="6.5"/>
		<g>
			<polygon class="st0" points="751.9,391.8 750.6,393.2 724.2,366.8 725.6,365.5 			"/>
			<polygon class="st0" points="737.6,406.5 736.2,407.9 709.6,381.2 710.9,379.8 			"/>
			<polygon class="st0" points="709,409.7 694.9,395.6 696.3,394.2 710.4,408.3 723.2,421.1 721.9,422.5 			"/>
			<polygon class="st0" points="766.3,377.2 765,378.6 738.9,352.5 740.2,351.1 			"/>
			<polygon class="st0" points="809.4,333.2 808.1,334.6 782.8,309.4 784.2,308 			"/>
			<polygon class="st0" points="780.7,362.5 779.3,363.9 753.5,338.1 754.9,336.7 			"/>
			<polygon class="st0" points="795,347.9 793.7,349.3 768.2,323.7 769.5,322.4 			"/>
		</g>
		
			<rect x="678.8" y="363.2" transform="matrix(0.7071 -0.7071 0.7071 0.7071 -37.6397 639.728)" class="st0" width="149.2" height="4.3"/>
		<path class="st0" d="M823.5,277.5l2.4,2.4l0.5,0.5l10,10c0.6,0.6,0.6,1.6,0,2.2l-1.2,1.2c-0.6,0.6-1.6,0.6-2.2,0l-10-10
			l-14.6,14.6l10,10c0.6,0.6,0.6,1.6,0,2.2l-0.9,0.9c-0.7,0.7-1.9,0.7-2.6,0l-9.8-9.8l-0.5-0.5l-0.8-0.8c-0.9-0.9-0.9-2.4,0-3.3
			L823.5,277.5z"/>
		<path class="st0" d="M802.7,260.1l1.1,35.9c0,0.5,0.6,0.7,0.9,0.4l18.9-18.9l-18.3-18.3C804.2,258.2,802.6,258.8,802.7,260.1z
			 M806.5,264.7l12.5,12.5c0.3,0.3,0.3,0.7,0,1L807.2,290c-0.2,0.2-0.5,0-0.5-0.2l-0.7-24.9C805.9,264.6,806.3,264.5,806.5,264.7
			L806.5,264.7z"/>
		<path class="st6" d="M705.4,422.8l105.5-105.5l4.8,4.8c1.3,1.3,1.3,3.4,0,4.7L718,426.5c-2.4,2.5-6.4,2.5-8.8,0L705.4,422.8
			L705.4,422.8z"/>
		<path class="st8" d="M832.9,286.9l3.5,3.5c0.6,0.6,0.6,1.6,0,2.2l-1.2,1.2c-0.6,0.6-1.6,0.6-2.2,0l-3.5-3.5L832.9,286.9z"/>
		<path class="st8" d="M811.7,308.2l3.3-3.3l3.5,3.5c0.6,0.6,0.6,1.6,0,2.2l-0.9,0.9c-0.7,0.7-1.9,0.7-2.6,0L811.7,308.2
			L811.7,308.2z"/>
		
			<rect x="682.5" y="417" transform="matrix(0.7071 -0.7071 0.7071 0.7071 -106.5995 610.9563)" class="st0" width="3.3" height="34.4"/>
	</g>
	
		<rect x="630.9" y="453.3" transform="matrix(0.7071 -0.7071 0.7071 0.7071 -132.0905 600.7538)" class="st0" width="56.5" height="13.1"/>
	
		<rect x="579.2" y="475.2" transform="matrix(0.7071 -0.7071 0.7071 0.7071 -166.4894 555.4506)" class="st0" width="16.1" height="7"/>
	<polygon class="st0" points="582.5,478.5 579.1,481.9 569.8,477.7 573.2,474.3 	"/>
	<path class="st0" d="M567.5,472.4c-1.8,1.8-1.8,4.8,0,6.7c1.8,1.8,4.8,1.8,6.7,0c1.8-1.8,1.8-4.8,0-6.7S569.3,470.5,567.5,472.4z"
		/>
</g>
</svg>
