<?xml version="1.0" encoding="utf-8"?>
<!-- Generator: Adobe Illustrator 23.0.2, SVG Export Plug-In . SVG Version: 6.00 Build 0)  -->
<svg version="1.1" id="Layer_1" xmlns="http://www.w3.org/2000/svg" xmlns:xlink="http://www.w3.org/1999/xlink" x="0px" y="0px"
	 viewBox="0 0 1400 980" style="enable-background:new 0 0 1400 980;" xml:space="preserve">
<style type="text/css">
	.st0{fill:#FFFFFF;}
	.st1{opacity:0.28;fill:#FFFFFF;enable-background:new    ;}
	.st2{opacity:0.2;fill:#FFFFFF;enable-background:new    ;}
	.st3{opacity:0.21;fill:#FFFFFF;enable-background:new    ;}
	.st4{opacity:0.25;fill:#FFFFFF;enable-background:new    ;}
	.st5{opacity:0.24;fill:#FFFFFF;enable-background:new    ;}
	.st6{opacity:0.26;fill:#FFFFFF;enable-background:new    ;}
	.st7{opacity:0.27;fill:#FFFFFF;enable-background:new    ;}
	.st8{opacity:0.36;fill:#FFFFFF;enable-background:new    ;}
</style>
<g>
	<g>
		<path class="st0" d="M775.3,511.3c-31.3-15.5-57.6-42.3-57.9-42.5l-14,13.4l14-13.4l-28,26.8c1.3,1.4,33.3,34,73.5,54L775.3,511.3
			z"/>
		<polygon class="st0" points="764.6,552.5 777.6,511 772.6,508.6 759.9,550.3 		"/>
		<path class="st0" d="M759.5,537.1c0.2-1.2-0.6-2.5-1.9-3c-19.4-7.5-38.5-24.2-38.7-24.4c-1.1-0.9-2.5-0.9-3.2-0.1
			c-0.7,0.9-0.5,2.3,0.6,3.3c0.8,0.7,20.1,17.6,40.5,25.5c0.9,0.3,1.7,0.2,2.2-0.3C759.3,537.8,759.4,537.5,759.5,537.1z"/>
	</g>
	
		<rect x="644.9" y="514.8" transform="matrix(0.7071 -0.7071 0.7071 0.7071 -167.9921 626.0568)" class="st0" width="53.6" height="2"/>
	<path class="st0" d="M556.5,525.1l110.9-110.9l54.3,54.3l-14.8,48.6l-30.8-30.7l-55,55l-3.5-2.2c-6.1-3.8-14-2.9-19,2.1l-17.2,17.2
		l-24.8-24.8C554.2,531.3,554.2,527.5,556.5,525.1z"/>
	<path class="st0" d="M680,573.7C680,573.7,679.9,573.6,680,573.7c-1.3-0.8-2.3-1.9-3-3.1l-10.2-16.4c-0.6-1.1-0.8-2.3-0.5-3.5
		l0.6-1.9c0.2-0.8-0.2-1.6-1-1.8l-3.4-1.1c-0.8-0.2-1.5-0.8-1.9-1.5l-5.3-10.7l-13.2-13.3l-21,21l4.6,7.8l20.5,37.7
		c0.4,0.7,1.3,1.1,2.1,0.8c5.1-1.7,23-7.6,31.2-10.3C681.2,576.9,681.5,574.6,680,573.7z"/>
	<path class="st1" d="M680,573.7c1.5,1,1.2,3.2-0.5,3.8c-8.2,2.7-26.1,8.6-31.2,10.3c-0.8,0.3-1.7-0.1-2.1-0.8l-20.5-37.7l-4.6-7.8
		l3.4-3.4l3.2,5.5l20.5,37.7c0.4,0.7,1.3,1.1,2.1,0.8c4.5-1.5,19.3-6.4,28.3-9.3C679.1,573,679.5,573.3,680,573.7
		C679.9,573.6,680,573.6,680,573.7z"/>
	
		<rect x="560.9" y="531.1" transform="matrix(0.7071 -0.7071 0.7071 0.7071 -220.3777 558.4285)" class="st0" width="5.9" height="28.3"/>
	
		<rect x="542.4" y="475.6" transform="matrix(0.7071 -0.7071 0.7071 0.7071 -160.8499 583.4168)" class="st0" width="162.9" height="20.5"/>
	
		<rect x="547.3" y="487.4" transform="matrix(0.7071 -0.7071 0.7071 0.7071 -162.8785 588.3167)" class="st2" width="162.9" height="6.7"/>
	<path class="st0" d="M672,490.5l-50.9,50.9l-3.5-2.2c-6.1-3.8-14-2.9-19,2.1l-17.2,17.2l-7.8-7.8l79.4-79.4L672,490.5L672,490.5z"
		/>
	<path class="st2" d="M621.5,533.7l46.8-46.8l3.7,3.7l-50.9,50.8l-3.5-2.2c-6.1-3.8-14-2.9-19,2.1l-17.2,17.2l-7.8-7.8l4.1-4.1
		l4.2,4.2l17.2-17.2c5.1-5.1,13-6,19-2.1L621.5,533.7L621.5,533.7z"/>
	<path class="st0" d="M620.6,525.3c-1.2,1.2-1.2,3.2,0,4.4s3.2,1.2,4.4,0s1.2-3.2,0-4.4S621.8,524,620.6,525.3z"/>
	<path class="st0" d="M642.1,520.4l8.6-8.6c-4.5,11.4,3.7,13.7,6.5,14.1c0.6,0.1,1.2,0.4,1.6,0.8l1.7,1.7l-5.2,5.2L642.1,520.4
		L642.1,520.4z"/>
	<path class="st0" d="M666.9,516.2c0.4,0,0.5-0.6,0.1-0.7c-3.1-1.4-10.3-5.3-7.8-12.2l-4.2,4.2C655.1,507.5,656.6,517,666.9,516.2z"
		/>
	<path class="st0" d="M673.9,488.7L673.9,488.7c4.9,2.9,8.9,6.9,11.8,11.8l0,0l2.3-2.3l-11.9-11.8L673.9,488.7z"/>
	<polygon class="st3" points="714.5,461.3 721.7,468.5 706.9,517.1 700.2,510.4 	"/>
	<path class="st0" d="M704.3,518.5L704.3,518.5c-0.7-0.7-0.9-1.7-0.5-2.7l15.3-50.6c0.7-1.6,2.8-2.1,4-0.8l0,0
		c0.7,0.7,0.9,1.7,0.5,2.7l-15.2,50.6C707.7,519.3,705.6,519.8,704.3,518.5z"/>
	
		<rect x="547.3" y="489.4" transform="matrix(0.7071 -0.7071 0.7071 0.7071 -180.1292 554.6232)" class="st0" width="64.3" height="10.6"/>
	<path class="st0" d="M566.5,507.3l-4.5-4.5c-0.9-0.9-2.5-0.9-3.4,0l-8.3,8.3c-0.9,0.9-0.9,2.5,0,3.4l4.5,4.5c0.9,0.9,2.5,0.9,3.4,0
		l8.3-8.3C567.5,509.8,567.5,508.3,566.5,507.3z"/>
	<path class="st0" d="M612.9,433.3l41.8-41.8c2.1-2.1,5.6-1.9,7.4,0.5l11.8,15.7L606,475.6l-8.9-8.9l-5-12.7l-16.6-16.6
		c-0.7-0.7-0.7-1.9,0-2.6l8.9-8.9c3.4-3.4,8.6-4.1,12.7-1.7L612.9,433.3L612.9,433.3z"/>
	<path class="st0" d="M602.2,446.2c-2.3,2.3-2.3,6.1,0,8.4s6.1,2.3,8.4,0c2.3-2.3,2.3-6.1,0-8.4S604.5,443.9,602.2,446.2z"/>
	<path class="st0" d="M602.2,446.2c-2.3,2.3-2.3,6.1,0,8.4s6.1,2.3,8.4,0c2.3-2.3,2.3-6.1,0-8.4S604.5,443.9,602.2,446.2z"/>
	<path class="st0" d="M636.6,418.6c-2.3,2.3-2.3,6.1,0,8.4s6.1,2.3,8.4,0c2.3-2.3,2.3-6.1,0-8.4C642.7,416.2,639,416.2,636.6,418.6z
		"/>
	<polygon class="st4" points="671.1,404 673.9,407.7 606,475.7 602.7,472.4 	"/>
	<g>
		
			<rect x="559.7" y="536.6" transform="matrix(0.7071 -0.7071 0.7071 0.7071 -223.7021 557.5164)" class="st0" width="2.9" height="24.3"/>
		<path class="st0" d="M471.7,663.7l-23.4-23.3c-1.8-1.8-0.7-5.1,2-6l1.7-0.5c2.6-0.8,5-2.3,6.9-4.3l89.4-89.4
			c0.6-0.6,1.6-0.7,2.1-0.2l21.5,21.5c0.5,0.5,0.5,1.5-0.2,2.1L471.7,663.7L471.7,663.7z"/>
		<path class="st0" d="M554.4,582.5l-16.8-16.8l-80.9,80.9c-2.6,2.6-2.6,6.7,0,9.3l19.1,19.1l78.6-78.6
			C558.3,592.6,558.3,586.3,554.4,582.5z"/>
		<polygon class="st0" points="475.8,675 533.7,617.2 546.5,629.9 515.5,672.7 516,715.2 		"/>
		<path class="st0" d="M519,663.6l0.4-18.6c0-0.8,0.3-1.5,0.9-2.1l13.9-13.9c1.2-1.2,3.1-1.2,4.2,0l7.7,7.7l-9.4,13.4l-5.1,20.3
			c-0.6,2.4-3.6,3.3-5.4,1.5l-6.2-6.2C519.3,665.2,519,664.4,519,663.6z"/>
		<path class="st0" d="M511.1,682.4c1.7-2.6,5.6-1.9,6.3,1.1l8.4,36.6c0.4,1.8-1.8,3.1-3.2,1.7l-22.4-22.4L511.1,682.4z"/>
		<path class="st0" d="M493.1,643.3l-1.1-1.1c-0.2-0.2-0.6-0.2-0.8,0l-19.5,19.5c-0.2,0.2-0.2,0.6,0,0.8l1.1,1.1
			c0.2,0.2,0.6,0.2,0.8,0l19.5-19.5C493.3,643.9,493.3,643.6,493.1,643.3z"/>
		<path class="st0" d="M518.8,617.6l-1.1-1.1c-0.2-0.2-0.6-0.2-0.8,0L497.4,636c-0.2,0.2-0.2,0.6,0,0.8l1.1,1.1
			c0.2,0.2,0.6,0.2,0.8,0l19.5-19.5C519,618.2,519,617.8,518.8,617.6z"/>
		<path class="st0" d="M544.5,591.8l-1.1-1.1c-0.2-0.2-0.6-0.2-0.8,0l-19.5,19.5c-0.2,0.2-0.2,0.6,0,0.8l1.1,1.1
			c0.2,0.2,0.6,0.2,0.8,0l19.5-19.5C544.8,592.4,544.8,592.1,544.5,591.8z"/>
		<path class="st0" d="M497.7,647.9l-1.1-1.1c-0.2-0.2-0.6-0.2-0.8,0l-19.6,19.6c-0.2,0.2-0.2,0.6,0,0.8l1.1,1.1
			c0.2,0.2,0.6,0.2,0.8,0l19.5-19.5C497.9,648.5,497.9,648.2,497.7,647.9z"/>
		<path class="st0" d="M523.4,622.2l-1.1-1.1c-0.2-0.2-0.6-0.2-0.8,0L502,640.6c-0.2,0.2-0.2,0.6,0,0.8l1.1,1.1
			c0.2,0.2,0.6,0.2,0.8,0l19.5-19.5C523.6,622.8,523.6,622.4,523.4,622.2z"/>
		<path class="st0" d="M549.1,596.5l-1.1-1.1c-0.2-0.2-0.6-0.2-0.8,0l-19.5,19.5c-0.2,0.2-0.2,0.6,0,0.8l1.1,1.1
			c0.2,0.2,0.6,0.2,0.8,0l19.5-19.5C549.4,597.1,549.4,596.7,549.1,596.5z"/>
		<path class="st0" d="M489.4,643.9L471,662.4L489.4,643.9z"/>
	</g>
	<g>
		<polygon class="st0" points="707.7,426.7 700.2,442.8 671.7,414.3 687.8,406.8 		"/>
		<polygon class="st5" points="707.7,426.7 700.2,442.8 688.8,431.5 700.3,420 		"/>
		
			<rect x="696.4" y="401.3" transform="matrix(0.7071 -0.7071 0.7071 0.7071 -88.4615 615.4854)" class="st0" width="4.7" height="26.4"/>
		<path class="st0" d="M816.1,317.5l-20.4-20.4c-1.3-1.3-3.4-1.3-4.7,0l-99.7,97.7c-2.5,2.4-2.5,6.4,0,8.8l18.2,18.2
			c2.4,2.4,6.4,2.4,8.8,0l97.7-99.7C817.4,320.9,817.4,318.8,816.1,317.5z"/>
		<path class="st0" d="M818.9,310.8l-16.5-16.5c-0.6-0.6-1.6-0.6-2.2,0l-3.7,3.7l18.7,18.7l3.7-3.7
			C819.5,312.4,819.5,311.4,818.9,310.8z"/>
		<path class="st6" d="M818.9,310.8l-4.4-4.4l-4.8,4.8l5.5,5.5l3.7-3.7C819.5,312.4,819.5,311.4,818.9,310.8z"/>
		
			<rect x="793.7" y="256.1" transform="matrix(0.7071 -0.7071 0.7071 0.7071 64.44 678.813)" class="st0" width="115.9" height="11"/>
		
			<rect x="796.3" y="262.3" transform="matrix(0.7071 -0.7071 0.7071 0.7071 63.4141 681.3777)" class="st0" width="115.9" height="3.7"/>
		
			<rect x="876.2" y="211.5" transform="matrix(0.7071 -0.7071 0.7071 0.7071 107.6838 696.6747)" class="st0" width="37.2" height="13.7"/>
		
			<rect x="886.9" y="205.7" transform="matrix(0.7071 -0.7071 0.7071 0.7071 112.1012 698.4913)" class="st0" width="24.6" height="16.4"/>
		
			<rect x="890.4" y="214.2" transform="matrix(0.7071 -0.7071 0.7071 0.7071 110.622 702.0267)" class="st7" width="24.6" height="6.5"/>
		
			<rect x="880.3" y="220.3" transform="matrix(0.7071 -0.7071 0.7071 0.7071 97.566 692.4664)" class="st0" width="8.7" height="16.4"/>
		
			<rect x="883.8" y="228.8" transform="matrix(0.7071 -0.7071 0.7071 0.7071 96.0869 696.0017)" class="st7" width="8.7" height="6.5"/>
		<g>
			<polygon class="st0" points="752.3,387.2 751,388.6 724.6,362.2 726,360.9 			"/>
			<polygon class="st0" points="738,401.9 736.6,403.3 710,376.6 711.3,375.2 			"/>
			<polygon class="st0" points="709.4,405.1 695.3,391 696.7,389.6 710.8,403.7 723.6,416.5 722.3,417.9 			"/>
			<polygon class="st0" points="766.7,372.6 765.4,374 739.3,347.9 740.6,346.5 			"/>
			<polygon class="st0" points="809.8,328.6 808.5,330 783.2,304.8 784.6,303.4 			"/>
			<polygon class="st0" points="781.1,357.9 779.7,359.3 753.9,333.5 755.3,332.1 			"/>
			<polygon class="st0" points="795.4,343.3 794.1,344.7 768.6,319.1 769.9,317.8 			"/>
		</g>
		
			<rect x="679.2" y="358.6" transform="matrix(0.7071 -0.7071 0.7071 0.7071 -34.3219 638.6703)" class="st0" width="149.2" height="4.3"/>
		<path class="st0" d="M823.9,272.9l2.4,2.4l0.5,0.5l10,10c0.6,0.6,0.6,1.6,0,2.2l-1.2,1.2c-0.6,0.6-1.6,0.6-2.2,0l-10-10
			l-14.6,14.6l10,10c0.6,0.6,0.6,1.6,0,2.2l-0.9,0.9c-0.7,0.7-1.9,0.7-2.6,0l-9.8-9.8l-0.5-0.5l-0.8-0.8c-0.9-0.9-0.9-2.4,0-3.3
			L823.9,272.9z"/>
		<path class="st0" d="M803.1,255.5l1.1,35.9c0,0.5,0.6,0.7,0.9,0.4l18.9-18.9l-18.3-18.3C804.6,253.6,803,254.2,803.1,255.5z
			 M806.9,260.1l12.5,12.5c0.3,0.3,0.3,0.7,0,1l-11.8,11.8c-0.2,0.2-0.5,0-0.5-0.2l-0.7-24.9C806.3,260,806.7,259.9,806.9,260.1
			L806.9,260.1z"/>
		<path class="st6" d="M705.8,418.2l105.5-105.5l4.8,4.8c1.3,1.3,1.3,3.4,0,4.7l-97.7,99.7c-2.4,2.5-6.4,2.5-8.8,0L705.8,418.2
			L705.8,418.2z"/>
		<path class="st8" d="M833.3,282.3l3.5,3.5c0.6,0.6,0.6,1.6,0,2.2l-1.2,1.2c-0.6,0.6-1.6,0.6-2.2,0l-3.5-3.5L833.3,282.3z"/>
		<path class="st8" d="M812.1,303.6l3.3-3.3l3.5,3.5c0.6,0.6,0.6,1.6,0,2.2l-0.9,0.9c-0.7,0.7-1.9,0.7-2.6,0L812.1,303.6
			L812.1,303.6z"/>
		
			<rect x="682.9" y="412.4" transform="matrix(0.7071 -0.7071 0.7071 0.7071 -103.3072 609.8825)" class="st0" width="3.3" height="34.4"/>
	</g>
	
		<rect x="631.3" y="448.7" transform="matrix(0.7071 -0.7071 0.7071 0.7071 -128.7492 599.6843)" class="st0" width="56.5" height="13.1"/>
	
		<rect x="579.5" y="470.6" transform="matrix(0.7071 -0.7071 0.7071 0.7071 -163.1517 554.3616)" class="st0" width="16.1" height="7"/>
	<polygon class="st0" points="582.9,473.9 579.5,477.3 570.2,473.1 573.6,469.7 	"/>
	<path class="st0" d="M567.9,467.8c-1.8,1.8-1.8,4.8,0,6.7c1.8,1.8,4.8,1.8,6.7,0c1.8-1.8,1.8-4.8,0-6.7S569.7,465.9,567.9,467.8z"
		/>
</g>
</svg>
